<svg xmlns="http://www.w3.org/2000/svg" xmlns:xlink="http://www.w3.org/1999/xlink" xmlns:lucid="lucid" width="1019.01" height="2240"><g transform="translate(-40.99382716049382 0)" lucid:page-tab-id="0_0"><path d="M0 0h1870.87v2581.67H0z" fill="#fff"/><path d="M240 26c0-3.3 2.7-6 6-6h788c3.3 0 6 2.7 6 6v2188c0 3.3-2.7 6-6 6H246c-3.3 0-6-2.7-6-6z" stroke="#5e5e5e" stroke-width="3" fill-opacity="0"/><use xlink:href="#a" transform="matrix(1,0,0,1,248,28) translate(274.8703703703704 17.77777777777778)"/><use xlink:href="#b" transform="matrix(1,0,0,1,248,28) translate(341.41358024691357 17.77777777777778)"/><use xlink:href="#c" transform="matrix(1,0,0,1,248,28) translate(438.820987654321 17.77777777777778)"/><path d="M159.75 440.95c0 10.9-8.84 19.75-19.75 19.75-10.9 0-19.75-8.84-19.75-19.75 0-10.9 8.84-19.75 19.75-19.75 10.9 0 19.75 8.84 19.75 19.75z" stroke="#5e5e5e" stroke-width="3" fill="#fff"/><path d="M140 460.7V510c0 3.32 1.44 8.27 3.2 11.07L180 579.2M140 516l-40 63.2m0-98.75h80" stroke="#5e5e5e" stroke-width="3" fill="none"/><path d="M100 427.2c0-3.3 2.7-6 6-6h68c3.3 0 6 2.7 6 6v168c0 3.32-2.7 6-6 6h-68c-3.3 0-6-2.68-6-6z" fill="none"/><use xlink:href="#d" transform="matrix(1,0,0,1,20,579.202080733317) translate(42.99382716049382 17.77777777777778)"/><use xlink:href="#e" transform="matrix(1,0,0,1,20,579.202080733317) translate(109.4753086419753 17.77777777777778)"/><path d="M718.5 160c0 33.14-49.25 60-110 60s-110-26.86-110-60 49.25-60 110-60 110 26.86 110 60z" stroke="#5e5e5e" stroke-width="3" fill="#fff"/><use xlink:href="#f" transform="matrix(1,0,0,1,498.5,100) translate(49.105000000000004 40.65)"/><use xlink:href="#g" transform="matrix(1,0,0,1,498.5,100) translate(109.055 40.65)"/><use xlink:href="#h" transform="matrix(1,0,0,1,498.5,100) translate(120.00500000000001 40.65)"/><use xlink:href="#i" transform="matrix(1,0,0,1,498.5,100) translate(20.654999999999994 62.25)"/><use xlink:href="#j" transform="matrix(1,0,0,1,498.5,100) translate(67.60499999999999 62.25)"/><use xlink:href="#k" transform="matrix(1,0,0,1,498.5,100) translate(108.505 62.25)"/><use xlink:href="#l" transform="matrix(1,0,0,1,498.5,100) translate(142.505 62.25)"/><use xlink:href="#m" transform="matrix(1,0,0,1,498.5,100) translate(170.40500000000003 62.25)"/><use xlink:href="#n" transform="matrix(1,0,0,1,498.5,100) translate(91.03 83.85000000000001)"/><path d="M142.5 500h170.75c3.3 0 6-2.7 6-6V166c0-3.3 2.7-6 6-6H496M142.53 500h-4.03" stroke="#5e5e5e" stroke-width="2" fill="none"/><path d="M497 160v.9l.02.1h-1.05v-2h1.05" fill="#5e5e5e"/><path d="M718.5 321.2c0 33.14-49.25 60-110 60s-110-26.86-110-60 49.25-60 110-60 110 26.86 110 60z" stroke="#5e5e5e" stroke-width="3" fill="#fff"/><use xlink:href="#o" transform="matrix(1,0,0,1,498.5,261.2020807333169) translate(77.05499999999999 29.4)"/><use xlink:href="#p" transform="matrix(1,0,0,1,498.5,261.2020807333169) translate(137.005 29.4)"/><use xlink:href="#q" transform="matrix(1,0,0,1,498.5,261.2020807333169) translate(35.58 51)"/><use xlink:href="#r" transform="matrix(1,0,0,1,498.5,261.2020807333169) translate(97.53 51)"/><use xlink:href="#s" transform="matrix(1,0,0,1,498.5,261.2020807333169) translate(154.43 51)"/><use xlink:href="#t" transform="matrix(1,0,0,1,498.5,261.2020807333169) translate(174.43 51)"/><use xlink:href="#u" transform="matrix(1,0,0,1,498.5,261.2020807333169) translate(31.104999999999997 72.60000000000001)"/><use xlink:href="#v" transform="matrix(1,0,0,1,498.5,261.2020807333169) translate(69.055 72.60000000000001)"/><use xlink:href="#w" transform="matrix(1,0,0,1,498.5,261.2020807333169) translate(93.055 72.60000000000001)"/><use xlink:href="#x" transform="matrix(1,0,0,1,498.5,261.2020807333169) translate(149.955 72.60000000000001)"/><use xlink:href="#y" transform="matrix(1,0,0,1,498.5,261.2020807333169) translate(71.60499999999999 94.20000000000002)"/><use xlink:href="#z" transform="matrix(1,0,0,1,498.5,261.2020807333169) translate(107.455 94.20000000000002)"/><path d="M718.5 481.2c0 33.14-49.25 60-110 60s-110-26.86-110-60 49.25-60 110-60 110 26.86 110 60z" stroke="#5e5e5e" stroke-width="3" fill="#fff"/><use xlink:href="#A" transform="matrix(1,0,0,1,498.5,421.2020807333169) translate(38.105 36.9)"/><use xlink:href="#g" transform="matrix(1,0,0,1,498.5,421.2020807333169) translate(98.055 36.9)"/><use xlink:href="#B" transform="matrix(1,0,0,1,498.5,421.2020807333169) translate(109.00500000000001 36.9)"/><use xlink:href="#C" transform="matrix(1,0,0,1,498.5,421.2020807333169) translate(14.104999999999999 58.5)"/><use xlink:href="#D" transform="matrix(1,0,0,1,498.5,421.2020807333169) translate(49.105 58.5)"/><use xlink:href="#E" transform="matrix(1,0,0,1,498.5,421.2020807333169) translate(130.055 58.5)"/><use xlink:href="#F" transform="matrix(1,0,0,1,498.5,421.2020807333169) translate(28.579999999999995 80.10000000000001)"/><use xlink:href="#G" transform="matrix(1,0,0,1,498.5,421.2020807333169) translate(115.53 80.10000000000001)"/><use xlink:href="#H" transform="matrix(1,0,0,1,498.5,421.2020807333169) translate(152.43 80.10000000000001)"/><use xlink:href="#I" transform="matrix(1,0,0,1,498.5,421.2020807333169) translate(90.53 101.70000000000002)"/><path d="M718.5 641.2c0 33.14-49.25 60-110 60s-110-26.86-110-60 49.25-60 110-60 110 26.86 110 60z" stroke="#5e5e5e" stroke-width="3" fill="#fff"/><use xlink:href="#J" transform="matrix(1,0,0,1,498.5,581.202080733317) translate(52.55499999999999 40.65)"/><use xlink:href="#g" transform="matrix(1,0,0,1,498.5,581.202080733317) translate(112.505 40.65)"/><use xlink:href="#K" transform="matrix(1,0,0,1,498.5,581.202080733317) translate(123.455 40.65)"/><use xlink:href="#t" transform="matrix(1,0,0,1,498.5,581.202080733317) translate(157.455 40.65)"/><use xlink:href="#L" transform="matrix(1,0,0,1,498.5,581.202080733317) translate(32.105 62.25)"/><use xlink:href="#s" transform="matrix(1,0,0,1,498.5,581.202080733317) translate(110.95500000000001 62.25)"/><use xlink:href="#M" transform="matrix(1,0,0,1,498.5,581.202080733317) translate(130.955 62.25)"/><use xlink:href="#N" transform="matrix(1,0,0,1,498.5,581.202080733317) translate(145.955 62.25)"/><use xlink:href="#O" transform="matrix(1,0,0,1,498.5,581.202080733317) translate(65.55499999999999 83.85000000000001)"/><path d="M778.5 811.2c0 38.66-62.68 70-140 70s-140-31.34-140-70 62.68-70 140-70 140 31.34 140 70z" stroke="#5e5e5e" stroke-width="3" fill="#fff"/><g><use xlink:href="#P" transform="matrix(1,0,0,1,498.5,741.202080733317) translate(90.58000000000001 31.9)"/><use xlink:href="#g" transform="matrix(1,0,0,1,498.5,741.202080733317) translate(150.53000000000003 31.9)"/><use xlink:href="#Q" transform="matrix(1,0,0,1,498.5,741.202080733317) translate(161.48000000000002 31.9)"/><use xlink:href="#w" transform="matrix(1,0,0,1,498.5,741.202080733317) translate(51.629999999999995 53.5)"/><use xlink:href="#R" transform="matrix(1,0,0,1,498.5,741.202080733317) translate(108.53 53.5)"/><use xlink:href="#S" transform="matrix(1,0,0,1,498.5,741.202080733317) translate(147.48000000000002 53.5)"/><use xlink:href="#T" transform="matrix(1,0,0,1,498.5,741.202080733317) translate(213.38 53.5)"/><use xlink:href="#U" transform="matrix(1,0,0,1,498.5,741.202080733317) translate(18.65499999999998 75.10000000000001)"/><use xlink:href="#V" transform="matrix(1,0,0,1,498.5,741.202080733317) translate(121.55499999999999 75.10000000000001)"/><use xlink:href="#W" transform="matrix(1,0,0,1,498.5,741.202080733317) translate(194.405 75.10000000000001)"/><use xlink:href="#C" transform="matrix(1,0,0,1,498.5,741.202080733317) translate(42.629999999999995 96.70000000000002)"/><use xlink:href="#X" transform="matrix(1,0,0,1,498.5,741.202080733317) translate(77.63 96.70000000000002)"/><use xlink:href="#Y" transform="matrix(1,0,0,1,498.5,741.202080733317) translate(121.58 96.70000000000002)"/><use xlink:href="#Z" transform="matrix(1,0,0,1,498.5,741.202080733317) translate(193.53000000000003 96.70000000000002)"/><use xlink:href="#aa" transform="matrix(1,0,0,1,498.5,741.202080733317) translate(219.48000000000002 96.70000000000002)"/><use xlink:href="#ab" transform="matrix(1,0,0,1,498.5,741.202080733317) translate(116.53 118.30000000000001)"/></g><path d="M142.5 500h170.75c3.3 0 6-2.7 6-6V327.2c0-3.3 2.7-6 6-6H496M142.53 500h-4.03" stroke="#5e5e5e" stroke-width="2" fill="none"/><path d="M497 321.2v.9l.02.1h-1.05v-2h1.05" fill="#5e5e5e"/><path d="M142.5 500h170.75c3.3 0 6-2.7 6-6v-6.8c0-3.3 2.7-6 6-6H496M142.53 500h-4.03" stroke="#5e5e5e" stroke-width="2" fill="none"/><path d="M497 481.2v.9l.02.1h-1.05v-2h1.05" fill="#5e5e5e"/><path d="M496 641.2H325.25c-3.3 0-6-2.68-6-6V506c0-3.3-2.7-6-6-6H142.5" stroke="#5e5e5e" stroke-width="2" fill="none"/><path d="M497 641.2v.9l.02.1h-1.05v-2h1.05" fill="#5e5e5e"/><path d="M142.53 500h-4.03M142.5 500H314c3.3 0 6 2.7 6 6v295.22c0 3.32 2.7 6 6 6h170.22M142.53 500h-4.03" stroke="#5e5e5e" stroke-width="2" fill="none"/><path d="M497.3 806.53l-.17 1.56v.12h-.93v-2h1.14" fill="#5e5e5e"/><path d="M718.5 1022.4c0 33.14-49.25 60-110 60s-110-26.86-110-60c0-33.13 49.25-60 110-60s110 26.87 110 60z" stroke="#5e5e5e" stroke-width="3" fill="#fff"/><g><use xlink:href="#ac" transform="matrix(1,0,0,1,498.5,962.4041614666339) translate(62.054999999999986 29.4)"/><use xlink:href="#g" transform="matrix(1,0,0,1,498.5,962.4041614666339) translate(122.005 29.4)"/><use xlink:href="#ad" transform="matrix(1,0,0,1,498.5,962.4041614666339) translate(132.95499999999998 29.4)"/><use xlink:href="#M" transform="matrix(1,0,0,1,498.5,962.4041614666339) translate(23.079999999999995 51)"/><use xlink:href="#ae" transform="matrix(1,0,0,1,498.5,962.4041614666339) translate(38.08 51)"/><use xlink:href="#S" transform="matrix(1,0,0,1,498.5,962.4041614666339) translate(86.03 51)"/><use xlink:href="#s" transform="matrix(1,0,0,1,498.5,962.4041614666339) translate(151.93 51)"/><use xlink:href="#af" transform="matrix(1,0,0,1,498.5,962.4041614666339) translate(171.93 51)"/><use xlink:href="#i" transform="matrix(1,0,0,1,498.5,962.4041614666339) translate(15.154999999999996 72.60000000000001)"/><use xlink:href="#V" transform="matrix(1,0,0,1,498.5,962.4041614666339) translate(62.105 72.60000000000001)"/><use xlink:href="#C" transform="matrix(1,0,0,1,498.5,962.4041614666339) translate(134.95499999999998 72.60000000000001)"/><use xlink:href="#ag" transform="matrix(1,0,0,1,498.5,962.4041614666339) translate(169.95499999999998 72.60000000000001)"/><use xlink:href="#ah" transform="matrix(1,0,0,1,498.5,962.4041614666339) translate(48.029999999999994 94.20000000000002)"/><use xlink:href="#ai" transform="matrix(1,0,0,1,498.5,962.4041614666339) translate(117.98 94.20000000000002)"/></g><path d="M798.5 1212.4c0 38.66-67.16 70-150 70s-150-31.34-150-70 67.16-70 150-70 150 31.34 150 70z" stroke="#5e5e5e" stroke-width="3" fill="#fff"/><g><use xlink:href="#aj" transform="matrix(1,0,0,1,498.5,1142.404161466634) translate(68.10499999999999 40.65)"/><use xlink:href="#g" transform="matrix(1,0,0,1,498.5,1142.404161466634) translate(128.055 40.65)"/><use xlink:href="#K" transform="matrix(1,0,0,1,498.5,1142.404161466634) translate(139.005 40.65)"/><use xlink:href="#ak" transform="matrix(1,0,0,1,498.5,1142.404161466634) translate(173.005 40.65)"/><use xlink:href="#T" transform="matrix(1,0,0,1,498.5,1142.404161466634) translate(216.90500000000003 40.65)"/><use xlink:href="#i" transform="matrix(1,0,0,1,498.5,1142.404161466634) translate(20.129999999999978 62.25)"/><use xlink:href="#al" transform="matrix(1,0,0,1,498.5,1142.404161466634) translate(67.07999999999998 62.25)"/><use xlink:href="#am" transform="matrix(1,0,0,1,498.5,1142.404161466634) translate(102.07999999999998 62.25)"/><use xlink:href="#an" transform="matrix(1,0,0,1,498.5,1142.404161466634) translate(146.07999999999998 62.25)"/><use xlink:href="#G" transform="matrix(1,0,0,1,498.5,1142.404161466634) translate(201.03 62.25)"/><use xlink:href="#ao" transform="matrix(1,0,0,1,498.5,1142.404161466634) translate(237.93 62.25)"/><use xlink:href="#ap" transform="matrix(1,0,0,1,498.5,1142.404161466634) translate(48.705 83.85000000000001)"/><use xlink:href="#C" transform="matrix(1,0,0,1,498.5,1142.404161466634) translate(184.405 83.85000000000001)"/><use xlink:href="#aq" transform="matrix(1,0,0,1,498.5,1142.404161466634) translate(219.405 83.85000000000001)"/><use xlink:href="#ar" transform="matrix(1,0,0,1,498.5,1142.404161466634) translate(45.32999999999999 105.45000000000002)"/><use xlink:href="#V" transform="matrix(1,0,0,1,498.5,1142.404161466634) translate(114.88 105.45000000000002)"/><use xlink:href="#as" transform="matrix(1,0,0,1,498.5,1142.404161466634) translate(187.73000000000002 105.45000000000002)"/></g><path d="M798.5 1450c0 38.66-67.16 70-150 70s-150-31.34-150-70 67.16-70 150-70 150 31.34 150 70z" stroke="#5e5e5e" stroke-width="3" fill="#fff"/><g><use xlink:href="#at" transform="matrix(1,0,0,1,498.5,1380) translate(46.605000000000004 53.775)"/><use xlink:href="#g" transform="matrix(1,0,0,1,498.5,1380) translate(106.555 53.775)"/><use xlink:href="#au" transform="matrix(1,0,0,1,498.5,1380) translate(117.50500000000001 53.775)"/><use xlink:href="#av" transform="matrix(1,0,0,1,498.5,1380) translate(188.405 53.775)"/><use xlink:href="#aw" transform="matrix(1,0,0,1,498.5,1380) translate(218.405 53.775)"/><use xlink:href="#ax" transform="matrix(1,0,0,1,498.5,1380) translate(27.65499999999998 75.375)"/><use xlink:href="#ay" transform="matrix(1,0,0,1,498.5,1380) translate(86.55499999999999 75.375)"/><use xlink:href="#az" transform="matrix(1,0,0,1,498.5,1380) translate(157.405 75.375)"/><use xlink:href="#aA" transform="matrix(1,0,0,1,498.5,1380) translate(177.405 75.375)"/><use xlink:href="#aB" transform="matrix(1,0,0,1,498.5,1380) translate(247.35500000000002 75.375)"/><use xlink:href="#aC" transform="matrix(1,0,0,1,498.5,1380) translate(44.105000000000004 96.97500000000001)"/><use xlink:href="#s" transform="matrix(1,0,0,1,498.5,1380) translate(143.955 96.97500000000001)"/><use xlink:href="#av" transform="matrix(1,0,0,1,498.5,1380) translate(163.955 96.97500000000001)"/><use xlink:href="#aD" transform="matrix(1,0,0,1,498.5,1380) translate(193.955 96.97500000000001)"/></g><path d="M798.5 1650c0 38.66-67.16 70-150 70s-150-31.34-150-70 67.16-70 150-70 150 31.34 150 70z" stroke="#5e5e5e" stroke-width="3" fill="#fff"/><g><use xlink:href="#aE" transform="matrix(1,0,0,1,498.5,1580) translate(56.154999999999994 40.65)"/><use xlink:href="#g" transform="matrix(1,0,0,1,498.5,1580) translate(116.105 40.65)"/><use xlink:href="#aF" transform="matrix(1,0,0,1,498.5,1580) translate(127.055 40.65)"/><use xlink:href="#M" transform="matrix(1,0,0,1,498.5,1580) translate(185.95499999999998 40.65)"/><use xlink:href="#aG" transform="matrix(1,0,0,1,498.5,1580) translate(200.95499999999998 40.65)"/><use xlink:href="#az" transform="matrix(1,0,0,1,498.5,1580) translate(37.08 62.25)"/><use xlink:href="#aH" transform="matrix(1,0,0,1,498.5,1580) translate(57.08 62.25)"/><use xlink:href="#av" transform="matrix(1,0,0,1,498.5,1580) translate(91.08 62.25)"/><use xlink:href="#aI" transform="matrix(1,0,0,1,498.5,1580) translate(121.08 62.25)"/><use xlink:href="#aJ" transform="matrix(1,0,0,1,498.5,1580) translate(200.07999999999998 62.25)"/><use xlink:href="#aK" transform="matrix(1,0,0,1,498.5,1580) translate(51.13000000000001 83.85000000000001)"/><use xlink:href="#C" transform="matrix(1,0,0,1,498.5,1580) translate(142.93 83.85000000000001)"/><use xlink:href="#aL" transform="matrix(1,0,0,1,498.5,1580) translate(177.93 83.85000000000001)"/><use xlink:href="#aM" transform="matrix(1,0,0,1,498.5,1580) translate(58.605 105.45000000000002)"/><use xlink:href="#s" transform="matrix(1,0,0,1,498.5,1580) translate(150.505 105.45000000000002)"/><use xlink:href="#av" transform="matrix(1,0,0,1,498.5,1580) translate(170.505 105.45000000000002)"/><use xlink:href="#aN" transform="matrix(1,0,0,1,498.5,1580) translate(200.505 105.45000000000002)"/></g><path d="M798.5 1850c0 38.66-67.16 70-150 70s-150-31.34-150-70 67.16-70 150-70 150 31.34 150 70z" stroke="#5e5e5e" stroke-width="3" fill="#fff"/><g><use xlink:href="#aO" transform="matrix(1,0,0,1,498.5,1780) translate(42.33 53.775)"/><use xlink:href="#g" transform="matrix(1,0,0,1,498.5,1780) translate(100.92999999999999 53.775)"/><use xlink:href="#aP" transform="matrix(1,0,0,1,498.5,1780) translate(111.88 53.775)"/><use xlink:href="#av" transform="matrix(1,0,0,1,498.5,1780) translate(168.78 53.775)"/><use xlink:href="#aQ" transform="matrix(1,0,0,1,498.5,1780) translate(198.78 53.775)"/><use xlink:href="#aR" transform="matrix(1,0,0,1,498.5,1780) translate(15.179999999999987 75.375)"/><use xlink:href="#az" transform="matrix(1,0,0,1,498.5,1780) translate(116.13 75.375)"/><use xlink:href="#aS" transform="matrix(1,0,0,1,498.5,1780) translate(136.13 75.375)"/><use xlink:href="#aT" transform="matrix(1,0,0,1,498.5,1780) translate(184.08 75.375)"/><use xlink:href="#av" transform="matrix(1,0,0,1,498.5,1780) translate(203.03 75.375)"/><use xlink:href="#aU" transform="matrix(1,0,0,1,498.5,1780) translate(233.03 75.375)"/><use xlink:href="#s" transform="matrix(1,0,0,1,498.5,1780) translate(97.83 96.97500000000001)"/><use xlink:href="#aV" transform="matrix(1,0,0,1,498.5,1780) translate(117.83 96.97500000000001)"/><use xlink:href="#aW" transform="matrix(1,0,0,1,498.5,1780) translate(158.18 96.97500000000001)"/></g><path d="M798.5 2050c0 38.66-67.16 70-150 70s-150-31.34-150-70 67.16-70 150-70 150 31.34 150 70z" stroke="#5e5e5e" stroke-width="3" fill="#fff"/><g><use xlink:href="#aX" transform="matrix(1,0,0,1,498.5,1980) translate(81.93 31.9)"/><use xlink:href="#aY" transform="matrix(1,0,0,1,498.5,1980) translate(139.18 31.9)"/><use xlink:href="#aF" transform="matrix(1,0,0,1,498.5,1980) translate(149.18 31.9)"/><use xlink:href="#t" transform="matrix(1,0,0,1,498.5,1980) translate(208.07999999999998 31.9)"/><use xlink:href="#aZ" transform="matrix(1,0,0,1,498.5,1980) translate(26.130000000000006 53.5)"/><use xlink:href="#az" transform="matrix(1,0,0,1,498.5,1980) translate(74.03 53.5)"/><use xlink:href="#ba" transform="matrix(1,0,0,1,498.5,1980) translate(94.03 53.5)"/><use xlink:href="#av" transform="matrix(1,0,0,1,498.5,1980) translate(132.98000000000002 53.5)"/><use xlink:href="#aI" transform="matrix(1,0,0,1,498.5,1980) translate(162.98000000000002 53.5)"/><use xlink:href="#bb" transform="matrix(1,0,0,1,498.5,1980) translate(241.98000000000002 53.5)"/><use xlink:href="#bc" transform="matrix(1,0,0,1,498.5,1980) translate(28.630000000000003 75.10000000000001)"/><use xlink:href="#bd" transform="matrix(1,0,0,1,498.5,1980) translate(68.63 75.10000000000001)"/><use xlink:href="#be" transform="matrix(1,0,0,1,498.5,1980) translate(93.63 75.10000000000001)"/><use xlink:href="#bf" transform="matrix(1,0,0,1,498.5,1980) translate(138.53 75.10000000000001)"/><use xlink:href="#bc" transform="matrix(1,0,0,1,498.5,1980) translate(168.53 75.10000000000001)"/><use xlink:href="#bg" transform="matrix(1,0,0,1,498.5,1980) translate(208.53 75.10000000000001)"/><use xlink:href="#bh" transform="matrix(1,0,0,1,498.5,1980) translate(48.655 96.70000000000002)"/><use xlink:href="#C" transform="matrix(1,0,0,1,498.5,1980) translate(139.45499999999998 96.70000000000002)"/><use xlink:href="#bi" transform="matrix(1,0,0,1,498.5,1980) translate(174.45499999999998 96.70000000000002)"/><use xlink:href="#bj" transform="matrix(1,0,0,1,498.5,1980) translate(120.53 118.30000000000001)"/></g><path d="M142.5 500h170.75c3.3 0 6 2.7 6 6v510.4c0 3.32 2.7 6 6 6H496M142.53 500h-4.03" stroke="#5e5e5e" stroke-width="2" fill="none"/><path d="M497 1022.4v.9l.02.1h-1.05v-2h1.05" fill="#5e5e5e"/><path d="M142.5 500h170.75c3.3 0 6 2.7 6 6v700.4c0 3.32 2.7 6 6 6H496M142.53 500h-4.03" stroke="#5e5e5e" stroke-width="2" fill="none"/><path d="M497 1212.4v.74l.02.26h-1.05v-2h1.05" fill="#5e5e5e"/><defs><path fill="#333" d="M212-179c-10-28-35-45-73-45-59 0-87 40-87 99 0 60 29 101 89 101 43 0 62-24 78-52l27 14C228-24 195 4 139 4 59 4 22-46 18-125c-6-104 99-153 187-111 19 9 31 26 39 46" id="bk"/><path fill="#333" d="M141-36C126-15 110 5 73 4 37 3 15-17 15-53c-1-64 63-63 125-63 3-35-9-54-41-54-24 1-41 7-42 31l-33-3c5-37 33-52 76-52 45 0 72 20 72 64v82c-1 20 7 32 28 27v20c-31 9-61-2-59-35zM48-53c0 20 12 33 32 33 41-3 63-29 60-74-43 2-92-5-92 41" id="bl"/><path fill="#333" d="M114-163C36-179 61-72 57 0H25l-1-190h30c1 12-1 29 2 39 6-27 23-49 58-41v29" id="bm"/><path fill="#333" d="M177-190C167-65 218 103 67 71c-23-6-38-20-44-43l32-5c15 47 100 32 89-28v-30C133-14 115 1 83 1 29 1 15-40 15-95c0-56 16-97 71-98 29-1 48 16 59 35 1-10 0-23 2-32h30zM94-22c36 0 50-32 50-73 0-42-14-75-50-75-39 0-46 34-46 75s6 73 46 73" id="bn"/><path fill="#333" d="M100-194c62-1 85 37 85 99 1 63-27 99-86 99S16-35 15-95c0-66 28-99 85-99zM99-20c44 1 53-31 53-75 0-43-8-75-51-75s-53 32-53 75 10 74 51 75" id="bo"/><g id="a"><use transform="matrix(0.06172839506172839,0,0,0.06172839506172839,0,0)" xlink:href="#bk"/><use transform="matrix(0.06172839506172839,0,0,0.06172839506172839,15.987654320987653,0)" xlink:href="#bl"/><use transform="matrix(0.06172839506172839,0,0,0.06172839506172839,28.333333333333332,0)" xlink:href="#bm"/><use transform="matrix(0.06172839506172839,0,0,0.06172839506172839,35.67901234567901,0)" xlink:href="#bn"/><use transform="matrix(0.06172839506172839,0,0,0.06172839506172839,48.02469135802469,0)" xlink:href="#bo"/></g><path fill="#333" d="M96-169c-40 0-48 33-48 73s9 75 48 75c24 0 41-14 43-38l32 2c-6 37-31 61-74 61-59 0-76-41-82-99-10-93 101-131 147-64 4 7 5 14 7 22l-32 3c-4-21-16-35-41-35" id="bp"/><path fill="#333" d="M117-194c89-4 53 116 60 194h-32v-121c0-31-8-49-39-48C34-167 62-67 57 0H25l-1-190h30c1 10-1 24 2 32 11-22 29-35 61-36" id="bq"/><path fill="#333" d="M59-47c-2 24 18 29 38 22v24C64 9 27 4 27-40v-127H5v-23h24l9-43h21v43h35v23H59v120" id="br"/><path fill="#333" d="M24-231v-30h32v30H24zM24 0v-190h32V0H24" id="bs"/><path fill="#333" d="M100-194c63 0 86 42 84 106H49c0 40 14 67 53 68 26 1 43-12 49-29l28 8c-11 28-37 45-77 45C44 4 14-33 15-96c1-61 26-98 85-98zm52 81c6-60-76-77-97-28-3 7-6 17-6 28h103" id="bt"/><g id="b"><use transform="matrix(0.06172839506172839,0,0,0.06172839506172839,0,0)" xlink:href="#bp"/><use transform="matrix(0.06172839506172839,0,0,0.06172839506172839,11.11111111111111,0)" xlink:href="#bo"/><use transform="matrix(0.06172839506172839,0,0,0.06172839506172839,23.45679012345679,0)" xlink:href="#bq"/><use transform="matrix(0.06172839506172839,0,0,0.06172839506172839,35.80246913580247,0)" xlink:href="#br"/><use transform="matrix(0.06172839506172839,0,0,0.06172839506172839,41.97530864197531,0)" xlink:href="#bl"/><use transform="matrix(0.06172839506172839,0,0,0.06172839506172839,54.32098765432099,0)" xlink:href="#bs"/><use transform="matrix(0.06172839506172839,0,0,0.06172839506172839,59.19753086419753,0)" xlink:href="#bq"/><use transform="matrix(0.06172839506172839,0,0,0.06172839506172839,71.54320987654322,0)" xlink:href="#bt"/><use transform="matrix(0.06172839506172839,0,0,0.06172839506172839,83.8888888888889,0)" xlink:href="#bm"/></g><path fill="#333" d="M135-143c-3-34-86-38-87 0 15 53 115 12 119 90S17 21 10-45l28-5c4 36 97 45 98 0-10-56-113-15-118-90-4-57 82-63 122-42 12 7 21 19 24 35" id="bu"/><path fill="#333" d="M179-190L93 31C79 59 56 82 12 73V49c39 6 53-20 64-50L1-190h34L92-34l54-156h33" id="bv"/><path fill="#333" d="M210-169c-67 3-38 105-44 169h-31v-121c0-29-5-50-35-48C34-165 62-65 56 0H25l-1-190h30c1 10-1 24 2 32 10-44 99-50 107 0 11-21 27-35 58-36 85-2 47 119 55 194h-31v-121c0-29-5-49-35-48" id="bw"/><g id="c"><use transform="matrix(0.06172839506172839,0,0,0.06172839506172839,0,0)" xlink:href="#bu"/><use transform="matrix(0.06172839506172839,0,0,0.06172839506172839,11.11111111111111,0)" xlink:href="#bv"/><use transform="matrix(0.06172839506172839,0,0,0.06172839506172839,22.22222222222222,0)" xlink:href="#bu"/><use transform="matrix(0.06172839506172839,0,0,0.06172839506172839,33.33333333333333,0)" xlink:href="#br"/><use transform="matrix(0.06172839506172839,0,0,0.06172839506172839,39.50617283950617,0)" xlink:href="#bt"/><use transform="matrix(0.06172839506172839,0,0,0.06172839506172839,51.85185185185185,0)" xlink:href="#bw"/></g><path fill="#333" d="M127-220V0H93v-220H8v-28h204v28h-85" id="bx"/><path fill="#333" d="M101-234c-31-9-42 10-38 44h38v23H63V0H32v-167H5v-23h27c-7-52 17-82 69-68v24" id="by"/><g id="d"><use transform="matrix(0.06172839506172839,0,0,0.06172839506172839,0,0)" xlink:href="#bx"/><use transform="matrix(0.06172839506172839,0,0,0.06172839506172839,12.716049382716047,0)" xlink:href="#bm"/><use transform="matrix(0.06172839506172839,0,0,0.06172839506172839,20.061728395061728,0)" xlink:href="#bl"/><use transform="matrix(0.06172839506172839,0,0,0.06172839506172839,32.407407407407405,0)" xlink:href="#by"/><use transform="matrix(0.06172839506172839,0,0,0.06172839506172839,38.148148148148145,0)" xlink:href="#by"/><use transform="matrix(0.06172839506172839,0,0,0.06172839506172839,44.32098765432099,0)" xlink:href="#bs"/><use transform="matrix(0.06172839506172839,0,0,0.06172839506172839,49.19753086419753,0)" xlink:href="#bp"/></g><path fill="#333" d="M240 0l2-218c-23 76-54 145-80 218h-23L58-218 59 0H30v-248h44l77 211c21-75 51-140 76-211h43V0h-30" id="bz"/><g id="e"><use transform="matrix(0.06172839506172839,0,0,0.06172839506172839,0,0)" xlink:href="#bz"/><use transform="matrix(0.06172839506172839,0,0,0.06172839506172839,18.456790123456788,0)" xlink:href="#bl"/><use transform="matrix(0.06172839506172839,0,0,0.06172839506172839,30.80246913580247,0)" xlink:href="#bq"/><use transform="matrix(0.06172839506172839,0,0,0.06172839506172839,43.148148148148145,0)" xlink:href="#bl"/><use transform="matrix(0.06172839506172839,0,0,0.06172839506172839,55.49382716049382,0)" xlink:href="#bn"/><use transform="matrix(0.06172839506172839,0,0,0.06172839506172839,67.8395061728395,0)" xlink:href="#bt"/><use transform="matrix(0.06172839506172839,0,0,0.06172839506172839,80.18518518518519,0)" xlink:href="#bm"/></g><path d="M232-93c-1 65-40 97-104 97C67 4 28-28 28-90v-158h33c8 89-33 224 67 224 102 0 64-133 71-224h33v155" id="bA"/><path d="M185-189c-5-48-123-54-124 2 14 75 158 14 163 119 3 78-121 87-175 55-17-10-28-26-33-46l33-7c5 56 141 63 141-1 0-78-155-14-162-118-5-82 145-84 179-34 5 7 8 16 11 25" id="bB"/><path d="M27 0v-27h64v-190l-56 39v-29l58-41h29v221h61V0H27" id="bC"/><path d="M101-251c68 0 85 55 85 127S166 4 100 4C33 4 14-52 14-124c0-73 17-127 87-127zm-1 229c47 0 54-49 54-102s-4-102-53-102c-51 0-55 48-55 102 0 53 5 102 54 102" id="bD"/><g id="f"><use transform="matrix(0.05,0,0,0.05,0,0)" xlink:href="#bA"/><use transform="matrix(0.05,0,0,0.05,12.950000000000001,0)" xlink:href="#bB"/><use transform="matrix(0.05,0,0,0.05,24.950000000000003,0)" xlink:href="#bC"/><use transform="matrix(0.05,0,0,0.05,34.95,0)" xlink:href="#bD"/><use transform="matrix(0.05,0,0,0.05,44.95,0)" xlink:href="#bC"/></g><path d="M16-82v-28h88v28H16" id="bE"/><use transform="matrix(0.05,0,0,0.05,0,0)" xlink:href="#bE" id="g"/><path d="M33 0v-248h34V0H33" id="bF"/><path d="M210-169c-67 3-38 105-44 169h-31v-121c0-29-5-50-35-48C34-165 62-65 56 0H25l-1-190h30c1 10-1 24 2 32 10-44 99-50 107 0 11-21 27-35 58-36 85-2 47 119 55 194h-31v-121c0-29-5-49-35-48" id="bG"/><path d="M115-194c55 1 70 41 70 98S169 2 115 4C84 4 66-9 55-30l1 105H24l-1-265h31l2 30c10-21 28-34 59-34zm-8 174c40 0 45-34 45-75s-6-73-45-74c-42 0-51 32-51 76 0 43 10 73 51 73" id="bH"/><path d="M100-194c62-1 85 37 85 99 1 63-27 99-86 99S16-35 15-95c0-66 28-99 85-99zM99-20c44 1 53-31 53-75 0-43-8-75-51-75s-53 32-53 75 10 74 51 75" id="bI"/><path d="M114-163C36-179 61-72 57 0H25l-1-190h30c1 12-1 29 2 39 6-27 23-49 58-41v29" id="bJ"/><path d="M59-47c-2 24 18 29 38 22v24C64 9 27 4 27-40v-127H5v-23h24l9-43h21v43h35v23H59v120" id="bK"/><g id="h"><use transform="matrix(0.05,0,0,0.05,0,0)" xlink:href="#bF"/><use transform="matrix(0.05,0,0,0.05,5,0)" xlink:href="#bG"/><use transform="matrix(0.05,0,0,0.05,19.950000000000003,0)" xlink:href="#bH"/><use transform="matrix(0.05,0,0,0.05,29.950000000000003,0)" xlink:href="#bI"/><use transform="matrix(0.05,0,0,0.05,39.95,0)" xlink:href="#bJ"/><use transform="matrix(0.05,0,0,0.05,45.900000000000006,0)" xlink:href="#bK"/></g><path d="M135-143c-3-34-86-38-87 0 15 53 115 12 119 90S17 21 10-45l28-5c4 36 97 45 98 0-10-56-113-15-118-90-4-57 82-63 122-42 12 7 21 19 24 35" id="bL"/><path d="M106-169C34-169 62-67 57 0H25v-261h32l-1 103c12-21 28-36 61-36 89 0 53 116 60 194h-32v-121c2-32-8-49-39-48" id="bM"/><path d="M24-231v-30h32v30H24zM24 0v-190h32V0H24" id="bN"/><g id="i"><use transform="matrix(0.05,0,0,0.05,0,0)" xlink:href="#bL"/><use transform="matrix(0.05,0,0,0.05,9,0)" xlink:href="#bM"/><use transform="matrix(0.05,0,0,0.05,19,0)" xlink:href="#bN"/><use transform="matrix(0.05,0,0,0.05,22.95,0)" xlink:href="#bH"/><use transform="matrix(0.05,0,0,0.05,32.95,0)" xlink:href="#bL"/></g><path d="M101-234c-31-9-42 10-38 44h38v23H63V0H32v-167H5v-23h27c-7-52 17-82 69-68v24" id="bO"/><g id="j"><use transform="matrix(0.05,0,0,0.05,0,0)" xlink:href="#bO"/><use transform="matrix(0.05,0,0,0.05,5,0)" xlink:href="#bJ"/><use transform="matrix(0.05,0,0,0.05,10.95,0)" xlink:href="#bI"/><use transform="matrix(0.05,0,0,0.05,20.95,0)" xlink:href="#bG"/></g><path d="M100-194c63 0 86 42 84 106H49c0 40 14 67 53 68 26 1 43-12 49-29l28 8c-11 28-37 45-77 45C44 4 14-33 15-96c1-61 26-98 85-98zm52 81c6-60-76-77-97-28-3 7-6 17-6 28h103" id="bP"/><path d="M141 0L90-78 38 0H4l68-98-65-92h35l48 74 47-74h35l-64 92 68 98h-35" id="bQ"/><g id="k"><use transform="matrix(0.05,0,0,0.05,0,0)" xlink:href="#bK"/><use transform="matrix(0.05,0,0,0.05,5,0)" xlink:href="#bP"/><use transform="matrix(0.05,0,0,0.05,15,0)" xlink:href="#bQ"/><use transform="matrix(0.05,0,0,0.05,24,0)" xlink:href="#bK"/></g><path d="M24 0v-261h32V0H24" id="bR"/><g id="l"><use transform="matrix(0.05,0,0,0.05,0,0)" xlink:href="#bO"/><use transform="matrix(0.05,0,0,0.05,5,0)" xlink:href="#bN"/><use transform="matrix(0.05,0,0,0.05,8.95,0)" xlink:href="#bR"/><use transform="matrix(0.05,0,0,0.05,12.899999999999999,0)" xlink:href="#bP"/></g><path d="M117-194c89-4 53 116 60 194h-32v-121c0-31-8-49-39-48C34-167 62-67 57 0H25l-1-190h30c1 10-1 24 2 32 11-22 29-35 61-36" id="bS"/><g id="m"><use transform="matrix(0.05,0,0,0.05,0,0)" xlink:href="#bN"/><use transform="matrix(0.05,0,0,0.05,3.95,0)" xlink:href="#bS"/><use transform="matrix(0.05,0,0,0.05,13.949999999999998,0)" xlink:href="#bK"/><use transform="matrix(0.05,0,0,0.05,18.95,0)" xlink:href="#bI"/></g><path d="M160-131c35 5 61 23 61 61C221 17 115-2 30 0v-248c76 3 177-17 177 60 0 33-19 50-47 57zm-97-11c50-1 110 9 110-42 0-47-63-36-110-37v79zm0 115c55-2 124 14 124-45 0-56-70-42-124-44v89" id="bT"/><path d="M127-220V0H93v-220H8v-28h204v28h-85" id="bU"/><path d="M33 0v-38h34V0H33" id="bV"/><g id="n"><use transform="matrix(0.05,0,0,0.05,0,0)" xlink:href="#bT"/><use transform="matrix(0.05,0,0,0.05,12,0)" xlink:href="#bB"/><use transform="matrix(0.05,0,0,0.05,24,0)" xlink:href="#bU"/><use transform="matrix(0.05,0,0,0.05,32.95,0)" xlink:href="#bV"/></g><path d="M101-251c82-7 93 87 43 132L82-64C71-53 59-42 53-27h129V0H18c2-99 128-94 128-182 0-28-16-43-45-43s-46 15-49 41l-32-3c6-41 34-60 81-64" id="bW"/><g id="o"><use transform="matrix(0.05,0,0,0.05,0,0)" xlink:href="#bA"/><use transform="matrix(0.05,0,0,0.05,12.950000000000001,0)" xlink:href="#bB"/><use transform="matrix(0.05,0,0,0.05,24.950000000000003,0)" xlink:href="#bC"/><use transform="matrix(0.05,0,0,0.05,34.95,0)" xlink:href="#bD"/><use transform="matrix(0.05,0,0,0.05,44.95,0)" xlink:href="#bW"/></g><use transform="matrix(0.05,0,0,0.05,0,0)" xlink:href="#bE" id="p"/><path d="M141-36C126-15 110 5 73 4 37 3 15-17 15-53c-1-64 63-63 125-63 3-35-9-54-41-54-24 1-41 7-42 31l-33-3c5-37 33-52 76-52 45 0 72 20 72 64v82c-1 20 7 32 28 27v20c-31 9-61-2-59-35zM48-53c0 20 12 33 32 33 41-3 63-29 60-74-43 2-92-5-92 41" id="bX"/><path d="M96-169c-40 0-48 33-48 73s9 75 48 75c24 0 41-14 43-38l32 2c-6 37-31 61-74 61-59 0-76-41-82-99-10-93 101-131 147-64 4 7 5 14 7 22l-32 3c-4-21-16-35-41-35" id="bY"/><g id="q"><use transform="matrix(0.05,0,0,0.05,0,0)" xlink:href="#bB"/><use transform="matrix(0.05,0,0,0.05,12,0)" xlink:href="#bP"/><use transform="matrix(0.05,0,0,0.05,22,0)" xlink:href="#bX"/><use transform="matrix(0.05,0,0,0.05,32,0)" xlink:href="#bJ"/><use transform="matrix(0.05,0,0,0.05,37.95,0)" xlink:href="#bY"/><use transform="matrix(0.05,0,0,0.05,46.95,0)" xlink:href="#bM"/></g><path d="M85-194c31 0 48 13 60 33l-1-100h32l1 261h-30c-2-10 0-23-3-31C134-8 116 4 85 4 32 4 16-35 15-94c0-66 23-100 70-100zm9 24c-40 0-46 34-46 75 0 40 6 74 45 74 42 0 51-32 51-76 0-42-9-74-50-73" id="bZ"/><g id="r"><use transform="matrix(0.05,0,0,0.05,0,0)" xlink:href="#bZ"/><use transform="matrix(0.05,0,0,0.05,10,0)" xlink:href="#bP"/><use transform="matrix(0.05,0,0,0.05,20,0)" xlink:href="#bK"/><use transform="matrix(0.05,0,0,0.05,25,0)" xlink:href="#bX"/><use transform="matrix(0.05,0,0,0.05,35,0)" xlink:href="#bN"/><use transform="matrix(0.05,0,0,0.05,38.95,0)" xlink:href="#bR"/><use transform="matrix(0.05,0,0,0.05,42.900000000000006,0)" xlink:href="#bL"/></g><g id="s"><use transform="matrix(0.05,0,0,0.05,0,0)" xlink:href="#bI"/><use transform="matrix(0.05,0,0,0.05,10,0)" xlink:href="#bO"/></g><use transform="matrix(0.05,0,0,0.05,0,0)" xlink:href="#bX" id="t"/><g id="u"><use transform="matrix(0.05,0,0,0.05,0,0)" xlink:href="#bL"/><use transform="matrix(0.05,0,0,0.05,9,0)" xlink:href="#bM"/><use transform="matrix(0.05,0,0,0.05,19,0)" xlink:href="#bN"/><use transform="matrix(0.05,0,0,0.05,22.95,0)" xlink:href="#bH"/></g><path d="M115-194c53 0 69 39 70 98 0 66-23 100-70 100C84 3 66-7 56-30L54 0H23l1-261h32v101c10-23 28-34 59-34zm-8 174c40 0 45-34 45-75 0-40-5-75-45-74-42 0-51 32-51 76 0 43 10 73 51 73" id="ca"/><path d="M179-190L93 31C79 59 56 82 12 73V49c39 6 53-20 64-50L1-190h34L92-34l54-156h33" id="cb"/><g id="v"><use transform="matrix(0.05,0,0,0.05,0,0)" xlink:href="#ca"/><use transform="matrix(0.05,0,0,0.05,10,0)" xlink:href="#cb"/></g><path d="M240 0l2-218c-23 76-54 145-80 218h-23L58-218 59 0H30v-248h44l77 211c21-75 51-140 76-211h43V0h-30" id="cc"/><path d="M68-38c1 34 0 65-14 84H32c9-13 17-26 17-46H33v-38h35" id="cd"/><g id="w"><use transform="matrix(0.05,0,0,0.05,0,0)" xlink:href="#cc"/><use transform="matrix(0.05,0,0,0.05,14.950000000000001,0)" xlink:href="#cc"/><use transform="matrix(0.05,0,0,0.05,29.900000000000002,0)" xlink:href="#bB"/><use transform="matrix(0.05,0,0,0.05,41.900000000000006,0)" xlink:href="#bF"/><use transform="matrix(0.05,0,0,0.05,46.900000000000006,0)" xlink:href="#cd"/></g><path d="M140-251c81 0 123 46 123 126C263-46 219 4 140 4 59 4 17-45 17-125s42-126 123-126zm0 227c63 0 89-41 89-101s-29-99-89-99c-61 0-89 39-89 99S79-25 140-24" id="ce"/><g id="x"><use transform="matrix(0.05,0,0,0.05,0,0)" xlink:href="#bF"/><use transform="matrix(0.05,0,0,0.05,5,0)" xlink:href="#cc"/><use transform="matrix(0.05,0,0,0.05,19.950000000000003,0)" xlink:href="#ce"/><use transform="matrix(0.05,0,0,0.05,33.95,0)" xlink:href="#cd"/></g><path d="M212-179c-10-28-35-45-73-45-59 0-87 40-87 99 0 60 29 101 89 101 43 0 62-24 78-52l27 14C228-24 195 4 139 4 59 4 22-46 18-125c-6-104 99-153 187-111 19 9 31 26 39 46" id="cf"/><g id="y"><use transform="matrix(0.05,0,0,0.05,0,0)" xlink:href="#cf"/><use transform="matrix(0.05,0,0,0.05,12.950000000000001,0)" xlink:href="#bX"/><use transform="matrix(0.05,0,0,0.05,22.950000000000003,0)" xlink:href="#bR"/><use transform="matrix(0.05,0,0,0.05,26.900000000000002,0)" xlink:href="#bR"/></g><path d="M177-190C167-65 218 103 67 71c-23-6-38-20-44-43l32-5c15 47 100 32 89-28v-30C133-14 115 1 83 1 29 1 15-40 15-95c0-56 16-97 71-98 29-1 48 16 59 35 1-10 0-23 2-32h30zM94-22c36 0 50-32 50-73 0-42-14-75-50-75-39 0-46 34-46 75s6 73 46 73" id="cg"/><g id="z"><use transform="matrix(0.05,0,0,0.05,0,0)" xlink:href="#bB"/><use transform="matrix(0.05,0,0,0.05,12,0)" xlink:href="#bN"/><use transform="matrix(0.05,0,0,0.05,15.949999999999998,0)" xlink:href="#cg"/><use transform="matrix(0.05,0,0,0.05,25.950000000000003,0)" xlink:href="#bS"/><use transform="matrix(0.05,0,0,0.05,35.95,0)" xlink:href="#bV"/></g><path d="M126-127c33 6 58 20 58 59 0 88-139 92-164 29-3-8-5-16-6-25l32-3c6 27 21 44 54 44 32 0 52-15 52-46 0-38-36-46-79-43v-28c39 1 72-4 72-42 0-27-17-43-46-43-28 0-47 15-49 41l-32-3c6-42 35-63 81-64 48-1 79 21 79 65 0 36-21 52-52 59" id="ch"/><g id="A"><use transform="matrix(0.05,0,0,0.05,0,0)" xlink:href="#bA"/><use transform="matrix(0.05,0,0,0.05,12.950000000000001,0)" xlink:href="#bB"/><use transform="matrix(0.05,0,0,0.05,24.950000000000003,0)" xlink:href="#bC"/><use transform="matrix(0.05,0,0,0.05,34.95,0)" xlink:href="#bD"/><use transform="matrix(0.05,0,0,0.05,44.95,0)" xlink:href="#ch"/></g><path d="M9 0v-24l116-142H16v-24h144v24L44-24h123V0H9" id="ci"/><g id="B"><use transform="matrix(0.05,0,0,0.05,0,0)" xlink:href="#ce"/><use transform="matrix(0.05,0,0,0.05,14,0)" xlink:href="#bJ"/><use transform="matrix(0.05,0,0,0.05,19.95,0)" xlink:href="#cg"/><use transform="matrix(0.05,0,0,0.05,29.950000000000003,0)" xlink:href="#bX"/><use transform="matrix(0.05,0,0,0.05,39.95,0)" xlink:href="#bS"/><use transform="matrix(0.05,0,0,0.05,49.95,0)" xlink:href="#bN"/><use transform="matrix(0.05,0,0,0.05,53.900000000000006,0)" xlink:href="#ci"/><use transform="matrix(0.05,0,0,0.05,62.900000000000006,0)" xlink:href="#bP"/></g><g id="C"><use transform="matrix(0.05,0,0,0.05,0,0)" xlink:href="#bX"/><use transform="matrix(0.05,0,0,0.05,10,0)" xlink:href="#bS"/><use transform="matrix(0.05,0,0,0.05,20,0)" xlink:href="#bZ"/></g><g id="D"><use transform="matrix(0.05,0,0,0.05,0,0)" xlink:href="#bX"/><use transform="matrix(0.05,0,0,0.05,10,0)" xlink:href="#bL"/><use transform="matrix(0.05,0,0,0.05,19,0)" xlink:href="#bL"/><use transform="matrix(0.05,0,0,0.05,28,0)" xlink:href="#bI"/><use transform="matrix(0.05,0,0,0.05,38,0)" xlink:href="#bY"/><use transform="matrix(0.05,0,0,0.05,47,0)" xlink:href="#bN"/><use transform="matrix(0.05,0,0,0.05,50.95,0)" xlink:href="#bX"/><use transform="matrix(0.05,0,0,0.05,60.95,0)" xlink:href="#bK"/><use transform="matrix(0.05,0,0,0.05,65.95,0)" xlink:href="#bP"/></g><g id="E"><use transform="matrix(0.05,0,0,0.05,0,0)" xlink:href="#bH"/><use transform="matrix(0.05,0,0,0.05,10,0)" xlink:href="#bI"/><use transform="matrix(0.05,0,0,0.05,20,0)" xlink:href="#bL"/><use transform="matrix(0.05,0,0,0.05,29,0)" xlink:href="#bN"/><use transform="matrix(0.05,0,0,0.05,32.95,0)" xlink:href="#bK"/><use transform="matrix(0.05,0,0,0.05,37.95,0)" xlink:href="#bN"/><use transform="matrix(0.05,0,0,0.05,41.900000000000006,0)" xlink:href="#bI"/><use transform="matrix(0.05,0,0,0.05,51.900000000000006,0)" xlink:href="#bS"/><use transform="matrix(0.05,0,0,0.05,61.900000000000006,0)" xlink:href="#bX"/><use transform="matrix(0.05,0,0,0.05,71.9,0)" xlink:href="#bR"/></g><g id="F"><use transform="matrix(0.05,0,0,0.05,0,0)" xlink:href="#bG"/><use transform="matrix(0.05,0,0,0.05,14.950000000000001,0)" xlink:href="#bP"/><use transform="matrix(0.05,0,0,0.05,24.950000000000003,0)" xlink:href="#bL"/><use transform="matrix(0.05,0,0,0.05,33.95,0)" xlink:href="#bL"/><use transform="matrix(0.05,0,0,0.05,42.95,0)" xlink:href="#bX"/><use transform="matrix(0.05,0,0,0.05,52.95,0)" xlink:href="#cg"/><use transform="matrix(0.05,0,0,0.05,62.95,0)" xlink:href="#bP"/><use transform="matrix(0.05,0,0,0.05,72.95,0)" xlink:href="#bL"/></g><path d="M206 0h-36l-40-164L89 0H53L-1-190h32L70-26l43-164h34l41 164 42-164h31" id="cj"/><g id="G"><use transform="matrix(0.05,0,0,0.05,0,0)" xlink:href="#cj"/><use transform="matrix(0.05,0,0,0.05,12.950000000000001,0)" xlink:href="#bN"/><use transform="matrix(0.05,0,0,0.05,16.900000000000002,0)" xlink:href="#bK"/><use transform="matrix(0.05,0,0,0.05,21.900000000000002,0)" xlink:href="#bM"/></g><g id="H"><use transform="matrix(0.05,0,0,0.05,0,0)" xlink:href="#bP"/><use transform="matrix(0.05,0,0,0.05,10,0)" xlink:href="#bX"/><use transform="matrix(0.05,0,0,0.05,20,0)" xlink:href="#bY"/><use transform="matrix(0.05,0,0,0.05,29,0)" xlink:href="#bM"/></g><g id="I"><use transform="matrix(0.05,0,0,0.05,0,0)" xlink:href="#bL"/><use transform="matrix(0.05,0,0,0.05,9,0)" xlink:href="#bM"/><use transform="matrix(0.05,0,0,0.05,19,0)" xlink:href="#bN"/><use transform="matrix(0.05,0,0,0.05,22.95,0)" xlink:href="#bH"/><use transform="matrix(0.05,0,0,0.05,32.95,0)" xlink:href="#bV"/></g><path d="M155-56V0h-30v-56H8v-25l114-167h33v167h35v25h-35zm-30-156c-27 46-58 90-88 131h88v-131" id="ck"/><g id="J"><use transform="matrix(0.05,0,0,0.05,0,0)" xlink:href="#bA"/><use transform="matrix(0.05,0,0,0.05,12.950000000000001,0)" xlink:href="#bB"/><use transform="matrix(0.05,0,0,0.05,24.950000000000003,0)" xlink:href="#bC"/><use transform="matrix(0.05,0,0,0.05,34.95,0)" xlink:href="#bD"/><use transform="matrix(0.05,0,0,0.05,44.95,0)" xlink:href="#ck"/></g><path d="M143 4C61 4 22-44 18-125c-5-107 100-154 193-111 17 8 29 25 37 43l-32 9c-13-25-37-40-76-40-61 0-88 39-88 99 0 61 29 100 91 101 35 0 62-11 79-27v-45h-74v-28h105v86C228-13 192 4 143 4" id="cl"/><g id="K"><use transform="matrix(0.05,0,0,0.05,0,0)" xlink:href="#cl"/><use transform="matrix(0.05,0,0,0.05,14,0)" xlink:href="#bP"/><use transform="matrix(0.05,0,0,0.05,24,0)" xlink:href="#bK"/></g><path d="M84 4C-5 8 30-112 23-190h32v120c0 31 7 50 39 49 72-2 45-101 50-169h31l1 190h-30c-1-10 1-25-2-33-11 22-28 36-60 37" id="cm"/><g id="L"><use transform="matrix(0.05,0,0,0.05,0,0)" xlink:href="#bL"/><use transform="matrix(0.05,0,0,0.05,9,0)" xlink:href="#cm"/><use transform="matrix(0.05,0,0,0.05,19,0)" xlink:href="#bG"/><use transform="matrix(0.05,0,0,0.05,33.95,0)" xlink:href="#bG"/><use transform="matrix(0.05,0,0,0.05,48.900000000000006,0)" xlink:href="#bX"/><use transform="matrix(0.05,0,0,0.05,58.900000000000006,0)" xlink:href="#bJ"/><use transform="matrix(0.05,0,0,0.05,64.85000000000001,0)" xlink:href="#cb"/></g><use transform="matrix(0.05,0,0,0.05,0,0)" xlink:href="#bX" id="M"/><g id="N"><use transform="matrix(0.05,0,0,0.05,0,0)" xlink:href="#bL"/><use transform="matrix(0.05,0,0,0.05,9,0)" xlink:href="#bM"/><use transform="matrix(0.05,0,0,0.05,19,0)" xlink:href="#bN"/><use transform="matrix(0.05,0,0,0.05,22.95,0)" xlink:href="#bH"/><use transform="matrix(0.05,0,0,0.05,32.95,0)" xlink:href="#bL"/></g><path d="M108 0H70L1-190h34L89-25l56-165h34" id="cn"/><g id="O"><use transform="matrix(0.05,0,0,0.05,0,0)" xlink:href="#bG"/><use transform="matrix(0.05,0,0,0.05,14.950000000000001,0)" xlink:href="#bI"/><use transform="matrix(0.05,0,0,0.05,24.950000000000003,0)" xlink:href="#cn"/><use transform="matrix(0.05,0,0,0.05,33.95,0)" xlink:href="#bP"/><use transform="matrix(0.05,0,0,0.05,43.95,0)" xlink:href="#bG"/><use transform="matrix(0.05,0,0,0.05,58.900000000000006,0)" xlink:href="#bP"/><use transform="matrix(0.05,0,0,0.05,68.9,0)" xlink:href="#bS"/><use transform="matrix(0.05,0,0,0.05,78.9,0)" xlink:href="#bK"/><use transform="matrix(0.05,0,0,0.05,83.9,0)" xlink:href="#bV"/></g><path d="M54-142c48-35 137-8 131 61C196 18 31 33 14-55l32-4c7 23 22 37 52 37 35-1 51-22 54-58 4-55-73-65-99-34H22l8-134h141v27H59" id="co"/><g id="P"><use transform="matrix(0.05,0,0,0.05,0,0)" xlink:href="#bA"/><use transform="matrix(0.05,0,0,0.05,12.950000000000001,0)" xlink:href="#bB"/><use transform="matrix(0.05,0,0,0.05,24.950000000000003,0)" xlink:href="#bC"/><use transform="matrix(0.05,0,0,0.05,34.95,0)" xlink:href="#bD"/><use transform="matrix(0.05,0,0,0.05,44.95,0)" xlink:href="#co"/></g><path d="M30 0v-248h33v221h125V0H30" id="cp"/><g id="Q"><use transform="matrix(0.05,0,0,0.05,0,0)" xlink:href="#cp"/><use transform="matrix(0.05,0,0,0.05,10,0)" xlink:href="#bN"/><use transform="matrix(0.05,0,0,0.05,13.949999999999998,0)" xlink:href="#bL"/><use transform="matrix(0.05,0,0,0.05,22.95,0)" xlink:href="#bK"/></g><g id="R"><use transform="matrix(0.05,0,0,0.05,0,0)" xlink:href="#bK"/><use transform="matrix(0.05,0,0,0.05,5,0)" xlink:href="#bI"/><use transform="matrix(0.05,0,0,0.05,15,0)" xlink:href="#bK"/><use transform="matrix(0.05,0,0,0.05,20,0)" xlink:href="#bX"/><use transform="matrix(0.05,0,0,0.05,30,0)" xlink:href="#bR"/></g><g id="S"><use transform="matrix(0.05,0,0,0.05,0,0)" xlink:href="#bS"/><use transform="matrix(0.05,0,0,0.05,10,0)" xlink:href="#cm"/><use transform="matrix(0.05,0,0,0.05,20,0)" xlink:href="#bG"/><use transform="matrix(0.05,0,0,0.05,34.95,0)" xlink:href="#ca"/><use transform="matrix(0.05,0,0,0.05,44.95,0)" xlink:href="#bP"/><use transform="matrix(0.05,0,0,0.05,54.95,0)" xlink:href="#bJ"/></g><g id="T"><use transform="matrix(0.05,0,0,0.05,0,0)" xlink:href="#bI"/><use transform="matrix(0.05,0,0,0.05,10,0)" xlink:href="#bO"/></g><g id="U"><use transform="matrix(0.05,0,0,0.05,0,0)" xlink:href="#bG"/><use transform="matrix(0.05,0,0,0.05,14.950000000000001,0)" xlink:href="#bI"/><use transform="matrix(0.05,0,0,0.05,24.950000000000003,0)" xlink:href="#cn"/><use transform="matrix(0.05,0,0,0.05,33.95,0)" xlink:href="#bP"/><use transform="matrix(0.05,0,0,0.05,43.95,0)" xlink:href="#bG"/><use transform="matrix(0.05,0,0,0.05,58.900000000000006,0)" xlink:href="#bP"/><use transform="matrix(0.05,0,0,0.05,68.9,0)" xlink:href="#bS"/><use transform="matrix(0.05,0,0,0.05,78.9,0)" xlink:href="#bK"/><use transform="matrix(0.05,0,0,0.05,83.9,0)" xlink:href="#bL"/><use transform="matrix(0.05,0,0,0.05,92.9,0)" xlink:href="#cd"/></g><g id="V"><use transform="matrix(0.05,0,0,0.05,0,0)" xlink:href="#bK"/><use transform="matrix(0.05,0,0,0.05,5,0)" xlink:href="#bJ"/><use transform="matrix(0.05,0,0,0.05,10.95,0)" xlink:href="#bX"/><use transform="matrix(0.05,0,0,0.05,20.95,0)" xlink:href="#cn"/><use transform="matrix(0.05,0,0,0.05,29.950000000000003,0)" xlink:href="#bP"/><use transform="matrix(0.05,0,0,0.05,39.95,0)" xlink:href="#bR"/><use transform="matrix(0.05,0,0,0.05,43.900000000000006,0)" xlink:href="#bR"/><use transform="matrix(0.05,0,0,0.05,47.85000000000001,0)" xlink:href="#bP"/><use transform="matrix(0.05,0,0,0.05,57.85,0)" xlink:href="#bZ"/></g><g id="W"><use transform="matrix(0.05,0,0,0.05,0,0)" xlink:href="#bZ"/><use transform="matrix(0.05,0,0,0.05,10,0)" xlink:href="#bN"/><use transform="matrix(0.05,0,0,0.05,13.949999999999998,0)" xlink:href="#bL"/><use transform="matrix(0.05,0,0,0.05,22.95,0)" xlink:href="#bK"/><use transform="matrix(0.05,0,0,0.05,27.950000000000003,0)" xlink:href="#bX"/><use transform="matrix(0.05,0,0,0.05,37.95,0)" xlink:href="#bS"/><use transform="matrix(0.05,0,0,0.05,47.95,0)" xlink:href="#bY"/><use transform="matrix(0.05,0,0,0.05,56.95,0)" xlink:href="#bP"/></g><g id="X"><use transform="matrix(0.05,0,0,0.05,0,0)" xlink:href="#bZ"/><use transform="matrix(0.05,0,0,0.05,10,0)" xlink:href="#bP"/><use transform="matrix(0.05,0,0,0.05,20,0)" xlink:href="#bR"/><use transform="matrix(0.05,0,0,0.05,23.95,0)" xlink:href="#bK"/><use transform="matrix(0.05,0,0,0.05,28.950000000000003,0)" xlink:href="#bX"/></g><g id="Y"><use transform="matrix(0.05,0,0,0.05,0,0)" xlink:href="#bZ"/><use transform="matrix(0.05,0,0,0.05,10,0)" xlink:href="#bN"/><use transform="matrix(0.05,0,0,0.05,13.949999999999998,0)" xlink:href="#bL"/><use transform="matrix(0.05,0,0,0.05,22.95,0)" xlink:href="#bK"/><use transform="matrix(0.05,0,0,0.05,27.950000000000003,0)" xlink:href="#bX"/><use transform="matrix(0.05,0,0,0.05,37.95,0)" xlink:href="#bS"/><use transform="matrix(0.05,0,0,0.05,47.95,0)" xlink:href="#bY"/><use transform="matrix(0.05,0,0,0.05,56.95,0)" xlink:href="#bP"/></g><g id="Z"><use transform="matrix(0.05,0,0,0.05,0,0)" xlink:href="#bO"/><use transform="matrix(0.05,0,0,0.05,5,0)" xlink:href="#bI"/><use transform="matrix(0.05,0,0,0.05,15,0)" xlink:href="#bJ"/></g><g id="aa"><use transform="matrix(0.05,0,0,0.05,0,0)" xlink:href="#bX"/><use transform="matrix(0.05,0,0,0.05,10,0)" xlink:href="#bR"/><use transform="matrix(0.05,0,0,0.05,13.949999999999998,0)" xlink:href="#bR"/></g><g id="ab"><use transform="matrix(0.05,0,0,0.05,0,0)" xlink:href="#bL"/><use transform="matrix(0.05,0,0,0.05,9,0)" xlink:href="#bM"/><use transform="matrix(0.05,0,0,0.05,19,0)" xlink:href="#bN"/><use transform="matrix(0.05,0,0,0.05,22.95,0)" xlink:href="#bH"/><use transform="matrix(0.05,0,0,0.05,32.95,0)" xlink:href="#bL"/><use transform="matrix(0.05,0,0,0.05,41.95,0)" xlink:href="#bV"/></g><path d="M110-160c48 1 74 30 74 79 0 53-28 85-80 85-65 0-83-55-86-122-5-90 50-162 133-122 14 7 22 21 27 39l-31 6c-5-40-67-38-82-6-9 19-15 44-15 74 11-20 30-34 60-33zm-7 138c34 0 49-23 49-58s-16-56-50-56c-29 0-50 16-49 49 1 36 15 65 50 65" id="cq"/><g id="ac"><use transform="matrix(0.05,0,0,0.05,0,0)" xlink:href="#bA"/><use transform="matrix(0.05,0,0,0.05,12.950000000000001,0)" xlink:href="#bB"/><use transform="matrix(0.05,0,0,0.05,24.950000000000003,0)" xlink:href="#bC"/><use transform="matrix(0.05,0,0,0.05,34.95,0)" xlink:href="#bD"/><use transform="matrix(0.05,0,0,0.05,44.95,0)" xlink:href="#cq"/></g><g id="ad"><use transform="matrix(0.05,0,0,0.05,0,0)" xlink:href="#cg"/><use transform="matrix(0.05,0,0,0.05,10,0)" xlink:href="#bP"/><use transform="matrix(0.05,0,0,0.05,20,0)" xlink:href="#bK"/></g><g id="ae"><use transform="matrix(0.05,0,0,0.05,0,0)" xlink:href="#cg"/><use transform="matrix(0.05,0,0,0.05,10,0)" xlink:href="#bN"/><use transform="matrix(0.05,0,0,0.05,13.949999999999998,0)" xlink:href="#cn"/><use transform="matrix(0.05,0,0,0.05,22.95,0)" xlink:href="#bP"/><use transform="matrix(0.05,0,0,0.05,32.95,0)" xlink:href="#bS"/></g><g id="af"><use transform="matrix(0.05,0,0,0.05,0,0)" xlink:href="#bK"/><use transform="matrix(0.05,0,0,0.05,5,0)" xlink:href="#bI"/><use transform="matrix(0.05,0,0,0.05,15,0)" xlink:href="#bH"/></g><g id="ag"><use transform="matrix(0.05,0,0,0.05,0,0)" xlink:href="#bK"/><use transform="matrix(0.05,0,0,0.05,5,0)" xlink:href="#bM"/><use transform="matrix(0.05,0,0,0.05,15,0)" xlink:href="#bP"/><use transform="matrix(0.05,0,0,0.05,25,0)" xlink:href="#bN"/><use transform="matrix(0.05,0,0,0.05,28.950000000000003,0)" xlink:href="#bJ"/></g><g id="ah"><use transform="matrix(0.05,0,0,0.05,0,0)" xlink:href="#bX"/><use transform="matrix(0.05,0,0,0.05,10,0)" xlink:href="#cn"/><use transform="matrix(0.05,0,0,0.05,19,0)" xlink:href="#bP"/><use transform="matrix(0.05,0,0,0.05,29,0)" xlink:href="#bJ"/><use transform="matrix(0.05,0,0,0.05,34.95,0)" xlink:href="#bX"/><use transform="matrix(0.05,0,0,0.05,44.95,0)" xlink:href="#cg"/><use transform="matrix(0.05,0,0,0.05,54.95,0)" xlink:href="#bP"/></g><g id="ai"><use transform="matrix(0.05,0,0,0.05,0,0)" xlink:href="#bL"/><use transform="matrix(0.05,0,0,0.05,9,0)" xlink:href="#bH"/><use transform="matrix(0.05,0,0,0.05,19,0)" xlink:href="#bP"/><use transform="matrix(0.05,0,0,0.05,29,0)" xlink:href="#bP"/><use transform="matrix(0.05,0,0,0.05,39,0)" xlink:href="#bZ"/><use transform="matrix(0.05,0,0,0.05,49,0)" xlink:href="#bV"/></g><path d="M64 0c3-98 48-159 88-221H18v-27h164v26C143-157 98-101 97 0H64" id="cr"/><g id="aj"><use transform="matrix(0.05,0,0,0.05,0,0)" xlink:href="#bA"/><use transform="matrix(0.05,0,0,0.05,12.950000000000001,0)" xlink:href="#bB"/><use transform="matrix(0.05,0,0,0.05,24.950000000000003,0)" xlink:href="#bC"/><use transform="matrix(0.05,0,0,0.05,34.95,0)" xlink:href="#bD"/><use transform="matrix(0.05,0,0,0.05,44.95,0)" xlink:href="#cr"/></g><g id="ak"><use transform="matrix(0.05,0,0,0.05,0,0)" xlink:href="#bH"/><use transform="matrix(0.05,0,0,0.05,10,0)" xlink:href="#bX"/><use transform="matrix(0.05,0,0,0.05,20,0)" xlink:href="#bN"/><use transform="matrix(0.05,0,0,0.05,23.95,0)" xlink:href="#bJ"/><use transform="matrix(0.05,0,0,0.05,29.899999999999995,0)" xlink:href="#bL"/></g><g id="al"><use transform="matrix(0.05,0,0,0.05,0,0)" xlink:href="#bK"/><use transform="matrix(0.05,0,0,0.05,5,0)" xlink:href="#bM"/><use transform="matrix(0.05,0,0,0.05,15,0)" xlink:href="#bX"/><use transform="matrix(0.05,0,0,0.05,25,0)" xlink:href="#bK"/></g><g id="am"><use transform="matrix(0.05,0,0,0.05,0,0)" xlink:href="#bM"/><use transform="matrix(0.05,0,0,0.05,10,0)" xlink:href="#bX"/><use transform="matrix(0.05,0,0,0.05,20,0)" xlink:href="#cn"/><use transform="matrix(0.05,0,0,0.05,29,0)" xlink:href="#bP"/></g><g id="an"><use transform="matrix(0.05,0,0,0.05,0,0)" xlink:href="#bJ"/><use transform="matrix(0.05,0,0,0.05,5.95,0)" xlink:href="#bI"/><use transform="matrix(0.05,0,0,0.05,15.949999999999998,0)" xlink:href="#cm"/><use transform="matrix(0.05,0,0,0.05,25.950000000000003,0)" xlink:href="#bK"/><use transform="matrix(0.05,0,0,0.05,30.950000000000003,0)" xlink:href="#bP"/><use transform="matrix(0.05,0,0,0.05,40.95,0)" xlink:href="#bL"/></g><g id="ao"><use transform="matrix(0.05,0,0,0.05,0,0)" xlink:href="#bY"/><use transform="matrix(0.05,0,0,0.05,9,0)" xlink:href="#bR"/><use transform="matrix(0.05,0,0,0.05,12.949999999999998,0)" xlink:href="#bI"/><use transform="matrix(0.05,0,0,0.05,22.95,0)" xlink:href="#bL"/><use transform="matrix(0.05,0,0,0.05,31.950000000000003,0)" xlink:href="#bP"/></g><path d="M0 4l72-265h28L28 4H0" id="cs"/><g id="ap"><use transform="matrix(0.05,0,0,0.05,0,0)" xlink:href="#bZ"/><use transform="matrix(0.05,0,0,0.05,10,0)" xlink:href="#bP"/><use transform="matrix(0.05,0,0,0.05,20,0)" xlink:href="#bH"/><use transform="matrix(0.05,0,0,0.05,30,0)" xlink:href="#bX"/><use transform="matrix(0.05,0,0,0.05,40,0)" xlink:href="#bJ"/><use transform="matrix(0.05,0,0,0.05,45.95,0)" xlink:href="#bK"/><use transform="matrix(0.05,0,0,0.05,50.95,0)" xlink:href="#cm"/><use transform="matrix(0.05,0,0,0.05,60.95,0)" xlink:href="#bJ"/><use transform="matrix(0.05,0,0,0.05,66.9,0)" xlink:href="#bP"/><use transform="matrix(0.05,0,0,0.05,76.9,0)" xlink:href="#cs"/><use transform="matrix(0.05,0,0,0.05,81.9,0)" xlink:href="#bX"/><use transform="matrix(0.05,0,0,0.05,91.9,0)" xlink:href="#bJ"/><use transform="matrix(0.05,0,0,0.05,97.85000000000001,0)" xlink:href="#bJ"/><use transform="matrix(0.05,0,0,0.05,103.80000000000001,0)" xlink:href="#bN"/><use transform="matrix(0.05,0,0,0.05,107.75,0)" xlink:href="#cn"/><use transform="matrix(0.05,0,0,0.05,116.75,0)" xlink:href="#bX"/><use transform="matrix(0.05,0,0,0.05,126.75,0)" xlink:href="#bR"/></g><g id="aq"><use transform="matrix(0.05,0,0,0.05,0,0)" xlink:href="#cj"/><use transform="matrix(0.05,0,0,0.05,12.950000000000001,0)" xlink:href="#bN"/><use transform="matrix(0.05,0,0,0.05,16.900000000000002,0)" xlink:href="#bK"/><use transform="matrix(0.05,0,0,0.05,21.900000000000002,0)" xlink:href="#bM"/></g><g id="ar"><use transform="matrix(0.05,0,0,0.05,0,0)" xlink:href="#bZ"/><use transform="matrix(0.05,0,0,0.05,10,0)" xlink:href="#bN"/><use transform="matrix(0.05,0,0,0.05,13.949999999999998,0)" xlink:href="#bO"/><use transform="matrix(0.05,0,0,0.05,18.6,0)" xlink:href="#bO"/><use transform="matrix(0.05,0,0,0.05,23.6,0)" xlink:href="#bP"/><use transform="matrix(0.05,0,0,0.05,33.6,0)" xlink:href="#bJ"/><use transform="matrix(0.05,0,0,0.05,39.550000000000004,0)" xlink:href="#bP"/><use transform="matrix(0.05,0,0,0.05,49.550000000000004,0)" xlink:href="#bS"/><use transform="matrix(0.05,0,0,0.05,59.550000000000004,0)" xlink:href="#bK"/></g><g id="as"><use transform="matrix(0.05,0,0,0.05,0,0)" xlink:href="#bZ"/><use transform="matrix(0.05,0,0,0.05,10,0)" xlink:href="#bN"/><use transform="matrix(0.05,0,0,0.05,13.949999999999998,0)" xlink:href="#bL"/><use transform="matrix(0.05,0,0,0.05,22.95,0)" xlink:href="#bK"/><use transform="matrix(0.05,0,0,0.05,27.950000000000003,0)" xlink:href="#bX"/><use transform="matrix(0.05,0,0,0.05,37.95,0)" xlink:href="#bS"/><use transform="matrix(0.05,0,0,0.05,47.95,0)" xlink:href="#bY"/><use transform="matrix(0.05,0,0,0.05,56.95,0)" xlink:href="#bP"/></g><path d="M134-131c28 9 52 24 51 62-1 50-34 73-85 73S17-19 16-69c0-36 21-54 49-61-75-25-45-126 34-121 46 3 78 18 79 63 0 33-17 51-44 57zm-34-11c31 1 46-15 46-44 0-28-17-43-47-42-29 0-46 13-45 42 1 28 16 44 46 44zm1 122c35 0 51-18 51-52 0-30-18-46-53-46-33 0-51 17-51 47 0 34 19 51 53 51" id="ct"/><g id="at"><use transform="matrix(0.05,0,0,0.05,0,0)" xlink:href="#bA"/><use transform="matrix(0.05,0,0,0.05,12.950000000000001,0)" xlink:href="#bB"/><use transform="matrix(0.05,0,0,0.05,24.950000000000003,0)" xlink:href="#bC"/><use transform="matrix(0.05,0,0,0.05,34.95,0)" xlink:href="#bD"/><use transform="matrix(0.05,0,0,0.05,44.95,0)" xlink:href="#ct"/></g><path d="M30-248c118-7 216 8 213 122C240-48 200 0 122 0H30v-248zM63-27c89 8 146-16 146-99s-60-101-146-95v194" id="cu"/><g id="au"><use transform="matrix(0.05,0,0,0.05,0,0)" xlink:href="#cu"/><use transform="matrix(0.05,0,0,0.05,12.950000000000001,0)" xlink:href="#bP"/><use transform="matrix(0.05,0,0,0.05,22.950000000000003,0)" xlink:href="#cn"/><use transform="matrix(0.05,0,0,0.05,31.950000000000003,0)" xlink:href="#bP"/><use transform="matrix(0.05,0,0,0.05,41.95,0)" xlink:href="#bR"/><use transform="matrix(0.05,0,0,0.05,45.900000000000006,0)" xlink:href="#bI"/><use transform="matrix(0.05,0,0,0.05,55.900000000000006,0)" xlink:href="#bH"/></g><g id="av"><use transform="matrix(0.05,0,0,0.05,0,0)" xlink:href="#bK"/><use transform="matrix(0.05,0,0,0.05,5,0)" xlink:href="#bM"/><use transform="matrix(0.05,0,0,0.05,15,0)" xlink:href="#bP"/></g><g id="aw"><use transform="matrix(0.05,0,0,0.05,0,0)" xlink:href="#bZ"/><use transform="matrix(0.05,0,0,0.05,10,0)" xlink:href="#bX"/><use transform="matrix(0.05,0,0,0.05,20,0)" xlink:href="#bK"/><use transform="matrix(0.05,0,0,0.05,25,0)" xlink:href="#bX"/></g><g id="ax"><use transform="matrix(0.05,0,0,0.05,0,0)" xlink:href="#bG"/><use transform="matrix(0.05,0,0,0.05,14.950000000000001,0)" xlink:href="#bI"/><use transform="matrix(0.05,0,0,0.05,24.950000000000003,0)" xlink:href="#bZ"/><use transform="matrix(0.05,0,0,0.05,34.95,0)" xlink:href="#bP"/><use transform="matrix(0.05,0,0,0.05,44.95,0)" xlink:href="#bR"/></g><path d="M145-31C134-9 116 4 85 4 32 4 16-35 15-94c0-59 17-99 70-100 32-1 48 14 60 33 0-11-1-24 2-32h30l-1 268h-32zM93-21c41 0 51-33 51-76s-8-73-50-73c-40 0-46 35-46 75s5 74 45 74" id="cv"/><g id="ay"><use transform="matrix(0.05,0,0,0.05,0,0)" xlink:href="#bJ"/><use transform="matrix(0.05,0,0,0.05,5.95,0)" xlink:href="#bP"/><use transform="matrix(0.05,0,0,0.05,15.949999999999998,0)" xlink:href="#cv"/><use transform="matrix(0.05,0,0,0.05,25.950000000000003,0)" xlink:href="#cm"/><use transform="matrix(0.05,0,0,0.05,35.95,0)" xlink:href="#bN"/><use transform="matrix(0.05,0,0,0.05,39.900000000000006,0)" xlink:href="#bJ"/><use transform="matrix(0.05,0,0,0.05,45.85000000000001,0)" xlink:href="#bP"/><use transform="matrix(0.05,0,0,0.05,55.85,0)" xlink:href="#bZ"/></g><g id="az"><use transform="matrix(0.05,0,0,0.05,0,0)" xlink:href="#bK"/><use transform="matrix(0.05,0,0,0.05,5,0)" xlink:href="#bI"/></g><g id="aA"><use transform="matrix(0.05,0,0,0.05,0,0)" xlink:href="#bL"/><use transform="matrix(0.05,0,0,0.05,9,0)" xlink:href="#cm"/><use transform="matrix(0.05,0,0,0.05,19,0)" xlink:href="#bH"/><use transform="matrix(0.05,0,0,0.05,29,0)" xlink:href="#bH"/><use transform="matrix(0.05,0,0,0.05,39,0)" xlink:href="#bI"/><use transform="matrix(0.05,0,0,0.05,49,0)" xlink:href="#bJ"/><use transform="matrix(0.05,0,0,0.05,54.95,0)" xlink:href="#bK"/></g><g id="aB"><use transform="matrix(0.05,0,0,0.05,0,0)" xlink:href="#bK"/><use transform="matrix(0.05,0,0,0.05,5,0)" xlink:href="#bM"/><use transform="matrix(0.05,0,0,0.05,15,0)" xlink:href="#bP"/></g><g id="aC"><use transform="matrix(0.05,0,0,0.05,0,0)" xlink:href="#bO"/><use transform="matrix(0.05,0,0,0.05,5,0)" xlink:href="#cm"/><use transform="matrix(0.05,0,0,0.05,15,0)" xlink:href="#bS"/><use transform="matrix(0.05,0,0,0.05,25,0)" xlink:href="#bY"/><use transform="matrix(0.05,0,0,0.05,34,0)" xlink:href="#bK"/><use transform="matrix(0.05,0,0,0.05,39,0)" xlink:href="#bN"/><use transform="matrix(0.05,0,0,0.05,42.95,0)" xlink:href="#bI"/><use transform="matrix(0.05,0,0,0.05,52.95,0)" xlink:href="#bS"/><use transform="matrix(0.05,0,0,0.05,62.95,0)" xlink:href="#bX"/><use transform="matrix(0.05,0,0,0.05,72.95,0)" xlink:href="#bR"/><use transform="matrix(0.05,0,0,0.05,76.9,0)" xlink:href="#bN"/><use transform="matrix(0.05,0,0,0.05,80.85000000000001,0)" xlink:href="#bK"/><use transform="matrix(0.05,0,0,0.05,85.85000000000001,0)" xlink:href="#cb"/></g><g id="aD"><use transform="matrix(0.05,0,0,0.05,0,0)" xlink:href="#bL"/><use transform="matrix(0.05,0,0,0.05,9,0)" xlink:href="#cb"/><use transform="matrix(0.05,0,0,0.05,18,0)" xlink:href="#bL"/><use transform="matrix(0.05,0,0,0.05,27,0)" xlink:href="#bK"/><use transform="matrix(0.05,0,0,0.05,32,0)" xlink:href="#bP"/><use transform="matrix(0.05,0,0,0.05,42,0)" xlink:href="#bG"/><use transform="matrix(0.05,0,0,0.05,56.95,0)" xlink:href="#bV"/></g><path d="M99-251c64 0 84 50 84 122C183-37 130 33 47-8c-14-7-20-23-25-40l30-5c6 39 69 39 84 7 9-19 16-44 16-74-10 22-31 35-62 35-49 0-73-33-73-83 0-54 28-83 82-83zm-1 141c31-1 51-18 51-49 0-36-14-67-51-67-34 0-49 23-49 58 0 34 15 58 49 58" id="cw"/><g id="aE"><use transform="matrix(0.05,0,0,0.05,0,0)" xlink:href="#bA"/><use transform="matrix(0.05,0,0,0.05,12.950000000000001,0)" xlink:href="#bB"/><use transform="matrix(0.05,0,0,0.05,24.950000000000003,0)" xlink:href="#bC"/><use transform="matrix(0.05,0,0,0.05,34.95,0)" xlink:href="#bD"/><use transform="matrix(0.05,0,0,0.05,44.95,0)" xlink:href="#cw"/></g><g id="aF"><use transform="matrix(0.05,0,0,0.05,0,0)" xlink:href="#cf"/><use transform="matrix(0.05,0,0,0.05,12.950000000000001,0)" xlink:href="#bJ"/><use transform="matrix(0.05,0,0,0.05,18.900000000000002,0)" xlink:href="#bP"/><use transform="matrix(0.05,0,0,0.05,28.900000000000002,0)" xlink:href="#bX"/><use transform="matrix(0.05,0,0,0.05,38.900000000000006,0)" xlink:href="#bK"/><use transform="matrix(0.05,0,0,0.05,43.900000000000006,0)" xlink:href="#bP"/></g><g id="aG"><use transform="matrix(0.05,0,0,0.05,0,0)" xlink:href="#bL"/><use transform="matrix(0.05,0,0,0.05,9,0)" xlink:href="#bY"/><use transform="matrix(0.05,0,0,0.05,18,0)" xlink:href="#bJ"/><use transform="matrix(0.05,0,0,0.05,23.95,0)" xlink:href="#bN"/><use transform="matrix(0.05,0,0,0.05,27.899999999999995,0)" xlink:href="#bH"/><use transform="matrix(0.05,0,0,0.05,37.9,0)" xlink:href="#bK"/></g><g id="aH"><use transform="matrix(0.05,0,0,0.05,0,0)" xlink:href="#bK"/><use transform="matrix(0.05,0,0,0.05,5,0)" xlink:href="#bP"/><use transform="matrix(0.05,0,0,0.05,15,0)" xlink:href="#bL"/><use transform="matrix(0.05,0,0,0.05,24,0)" xlink:href="#bK"/></g><g id="aI"><use transform="matrix(0.05,0,0,0.05,0,0)" xlink:href="#bZ"/><use transform="matrix(0.05,0,0,0.05,10,0)" xlink:href="#bX"/><use transform="matrix(0.05,0,0,0.05,20,0)" xlink:href="#bK"/><use transform="matrix(0.05,0,0,0.05,25,0)" xlink:href="#bX"/><use transform="matrix(0.05,0,0,0.05,35,0)" xlink:href="#ca"/><use transform="matrix(0.05,0,0,0.05,45,0)" xlink:href="#bX"/><use transform="matrix(0.05,0,0,0.05,55,0)" xlink:href="#bL"/><use transform="matrix(0.05,0,0,0.05,64,0)" xlink:href="#bP"/></g><g id="aJ"><use transform="matrix(0.05,0,0,0.05,0,0)" xlink:href="#bN"/><use transform="matrix(0.05,0,0,0.05,3.95,0)" xlink:href="#bS"/><use transform="matrix(0.05,0,0,0.05,13.949999999999998,0)" xlink:href="#bK"/><use transform="matrix(0.05,0,0,0.05,18.95,0)" xlink:href="#bP"/><use transform="matrix(0.05,0,0,0.05,28.950000000000003,0)" xlink:href="#cg"/><use transform="matrix(0.05,0,0,0.05,38.95,0)" xlink:href="#bJ"/><use transform="matrix(0.05,0,0,0.05,44.900000000000006,0)" xlink:href="#bN"/><use transform="matrix(0.05,0,0,0.05,48.85000000000001,0)" xlink:href="#bK"/><use transform="matrix(0.05,0,0,0.05,53.85,0)" xlink:href="#cb"/></g><g id="aK"><use transform="matrix(0.05,0,0,0.05,0,0)" xlink:href="#bJ"/><use transform="matrix(0.05,0,0,0.05,5.95,0)" xlink:href="#bP"/><use transform="matrix(0.05,0,0,0.05,15.949999999999998,0)" xlink:href="#bL"/><use transform="matrix(0.05,0,0,0.05,24.95,0)" xlink:href="#bK"/><use transform="matrix(0.05,0,0,0.05,29.950000000000003,0)" xlink:href="#bJ"/><use transform="matrix(0.05,0,0,0.05,35.9,0)" xlink:href="#bN"/><use transform="matrix(0.05,0,0,0.05,39.85,0)" xlink:href="#bY"/><use transform="matrix(0.05,0,0,0.05,48.85,0)" xlink:href="#bK"/><use transform="matrix(0.05,0,0,0.05,53.85,0)" xlink:href="#bN"/><use transform="matrix(0.05,0,0,0.05,57.800000000000004,0)" xlink:href="#bI"/><use transform="matrix(0.05,0,0,0.05,67.80000000000001,0)" xlink:href="#bS"/><use transform="matrix(0.05,0,0,0.05,77.80000000000001,0)" xlink:href="#bL"/></g><g id="aL"><use transform="matrix(0.05,0,0,0.05,0,0)" xlink:href="#ca"/><use transform="matrix(0.05,0,0,0.05,10,0)" xlink:href="#cm"/><use transform="matrix(0.05,0,0,0.05,20,0)" xlink:href="#bN"/><use transform="matrix(0.05,0,0,0.05,23.95,0)" xlink:href="#bL"/><use transform="matrix(0.05,0,0,0.05,32.95,0)" xlink:href="#bS"/><use transform="matrix(0.05,0,0,0.05,42.95,0)" xlink:href="#bP"/><use transform="matrix(0.05,0,0,0.05,52.95,0)" xlink:href="#bL"/><use transform="matrix(0.05,0,0,0.05,61.95,0)" xlink:href="#bL"/></g><g id="aM"><use transform="matrix(0.05,0,0,0.05,0,0)" xlink:href="#bY"/><use transform="matrix(0.05,0,0,0.05,9,0)" xlink:href="#bI"/><use transform="matrix(0.05,0,0,0.05,19,0)" xlink:href="#bS"/><use transform="matrix(0.05,0,0,0.05,29,0)" xlink:href="#bL"/><use transform="matrix(0.05,0,0,0.05,38,0)" xlink:href="#bK"/><use transform="matrix(0.05,0,0,0.05,43,0)" xlink:href="#bJ"/><use transform="matrix(0.05,0,0,0.05,48.95,0)" xlink:href="#bX"/><use transform="matrix(0.05,0,0,0.05,58.95,0)" xlink:href="#bN"/><use transform="matrix(0.05,0,0,0.05,62.900000000000006,0)" xlink:href="#bS"/><use transform="matrix(0.05,0,0,0.05,72.9,0)" xlink:href="#bK"/><use transform="matrix(0.05,0,0,0.05,77.9,0)" xlink:href="#bL"/></g><g id="aN"><use transform="matrix(0.05,0,0,0.05,0,0)" xlink:href="#bA"/><use transform="matrix(0.05,0,0,0.05,12.950000000000001,0)" xlink:href="#bI"/><use transform="matrix(0.05,0,0,0.05,22.950000000000003,0)" xlink:href="#cu"/><use transform="matrix(0.05,0,0,0.05,35.900000000000006,0)" xlink:href="#bV"/></g><g id="aO"><use transform="matrix(0.05,0,0,0.05,0,0)" xlink:href="#bA"/><use transform="matrix(0.05,0,0,0.05,12.950000000000001,0)" xlink:href="#bB"/><use transform="matrix(0.05,0,0,0.05,24.950000000000003,0)" xlink:href="#bC"/><use transform="matrix(0.05,0,0,0.05,33.6,0)" xlink:href="#bC"/><use transform="matrix(0.05,0,0,0.05,43.6,0)" xlink:href="#bD"/></g><g id="aP"><use transform="matrix(0.05,0,0,0.05,0,0)" xlink:href="#cu"/><use transform="matrix(0.05,0,0,0.05,12.950000000000001,0)" xlink:href="#bP"/><use transform="matrix(0.05,0,0,0.05,22.950000000000003,0)" xlink:href="#bO"/><use transform="matrix(0.05,0,0,0.05,27.950000000000003,0)" xlink:href="#bN"/><use transform="matrix(0.05,0,0,0.05,31.900000000000002,0)" xlink:href="#bS"/><use transform="matrix(0.05,0,0,0.05,41.900000000000006,0)" xlink:href="#bP"/></g><g id="aQ"><use transform="matrix(0.05,0,0,0.05,0,0)" xlink:href="#bS"/><use transform="matrix(0.05,0,0,0.05,10,0)" xlink:href="#bX"/><use transform="matrix(0.05,0,0,0.05,20,0)" xlink:href="#bG"/><use transform="matrix(0.05,0,0,0.05,34.95,0)" xlink:href="#bN"/><use transform="matrix(0.05,0,0,0.05,38.900000000000006,0)" xlink:href="#bS"/><use transform="matrix(0.05,0,0,0.05,48.900000000000006,0)" xlink:href="#cg"/></g><g id="aR"><use transform="matrix(0.05,0,0,0.05,0,0)" xlink:href="#bY"/><use transform="matrix(0.05,0,0,0.05,9,0)" xlink:href="#bI"/><use transform="matrix(0.05,0,0,0.05,19,0)" xlink:href="#bS"/><use transform="matrix(0.05,0,0,0.05,29,0)" xlink:href="#cn"/><use transform="matrix(0.05,0,0,0.05,38,0)" xlink:href="#bP"/><use transform="matrix(0.05,0,0,0.05,48,0)" xlink:href="#bS"/><use transform="matrix(0.05,0,0,0.05,58,0)" xlink:href="#bK"/><use transform="matrix(0.05,0,0,0.05,63,0)" xlink:href="#bN"/><use transform="matrix(0.05,0,0,0.05,66.95,0)" xlink:href="#bI"/><use transform="matrix(0.05,0,0,0.05,76.95,0)" xlink:href="#bS"/><use transform="matrix(0.05,0,0,0.05,86.95,0)" xlink:href="#bL"/></g><g id="aS"><use transform="matrix(0.05,0,0,0.05,0,0)" xlink:href="#bX"/><use transform="matrix(0.05,0,0,0.05,10,0)" xlink:href="#bH"/><use transform="matrix(0.05,0,0,0.05,20,0)" xlink:href="#bH"/><use transform="matrix(0.05,0,0,0.05,30,0)" xlink:href="#bR"/><use transform="matrix(0.05,0,0,0.05,33.95,0)" xlink:href="#cb"/></g><g id="aT"><use transform="matrix(0.05,0,0,0.05,0,0)" xlink:href="#bN"/><use transform="matrix(0.05,0,0,0.05,3.95,0)" xlink:href="#bS"/></g><g id="aU"><use transform="matrix(0.05,0,0,0.05,0,0)" xlink:href="#cj"/><use transform="matrix(0.05,0,0,0.05,12.950000000000001,0)" xlink:href="#bJ"/><use transform="matrix(0.05,0,0,0.05,18.900000000000002,0)" xlink:href="#bN"/><use transform="matrix(0.05,0,0,0.05,22.85,0)" xlink:href="#bK"/><use transform="matrix(0.05,0,0,0.05,27.85,0)" xlink:href="#bN"/><use transform="matrix(0.05,0,0,0.05,31.8,0)" xlink:href="#bS"/><use transform="matrix(0.05,0,0,0.05,41.8,0)" xlink:href="#cg"/></g><path d="M140-251c81 0 123 46 123 126C263-53 228-8 163 1c7 30 30 48 69 40v23c-55 16-95-15-103-61C56-3 17-48 17-125c0-80 42-126 123-126zm0 227c63 0 89-41 89-101s-29-99-89-99c-61 0-89 39-89 99S79-25 140-24" id="cx"/><g id="aV"><use transform="matrix(0.05,0,0,0.05,0,0)" xlink:href="#bB"/><use transform="matrix(0.05,0,0,0.05,12,0)" xlink:href="#cx"/><use transform="matrix(0.05,0,0,0.05,26,0)" xlink:href="#cp"/></g><g id="aW"><use transform="matrix(0.05,0,0,0.05,0,0)" xlink:href="#bY"/><use transform="matrix(0.05,0,0,0.05,9,0)" xlink:href="#bI"/><use transform="matrix(0.05,0,0,0.05,19,0)" xlink:href="#bZ"/><use transform="matrix(0.05,0,0,0.05,29,0)" xlink:href="#bP"/><use transform="matrix(0.05,0,0,0.05,39,0)" xlink:href="#bV"/></g><g id="aX"><use transform="matrix(0.05,0,0,0.05,0,0)" xlink:href="#bA"/><use transform="matrix(0.05,0,0,0.05,12.950000000000001,0)" xlink:href="#bB"/><use transform="matrix(0.05,0,0,0.05,24.950000000000003,0)" xlink:href="#bC"/><use transform="matrix(0.05,0,0,0.05,33.6,0)" xlink:href="#bC"/><use transform="matrix(0.05,0,0,0.05,42.25,0)" xlink:href="#bC"/></g><use transform="matrix(0.05,0,0,0.05,0,0)" xlink:href="#bV" id="aY"/><g id="aZ"><use transform="matrix(0.05,0,0,0.05,0,0)" xlink:href="#bL"/><use transform="matrix(0.05,0,0,0.05,9,0)" xlink:href="#bY"/><use transform="matrix(0.05,0,0,0.05,18,0)" xlink:href="#bJ"/><use transform="matrix(0.05,0,0,0.05,23.95,0)" xlink:href="#bN"/><use transform="matrix(0.05,0,0,0.05,27.899999999999995,0)" xlink:href="#bH"/><use transform="matrix(0.05,0,0,0.05,37.9,0)" xlink:href="#bK"/></g><g id="ba"><use transform="matrix(0.05,0,0,0.05,0,0)" xlink:href="#bR"/><use transform="matrix(0.05,0,0,0.05,3.95,0)" xlink:href="#bI"/><use transform="matrix(0.05,0,0,0.05,13.949999999999998,0)" xlink:href="#bX"/><use transform="matrix(0.05,0,0,0.05,23.95,0)" xlink:href="#bZ"/></g><g id="bb"><use transform="matrix(0.05,0,0,0.05,0,0)" xlink:href="#cj"/><use transform="matrix(0.05,0,0,0.05,12.950000000000001,0)" xlink:href="#bN"/><use transform="matrix(0.05,0,0,0.05,16.900000000000002,0)" xlink:href="#bK"/><use transform="matrix(0.05,0,0,0.05,21.900000000000002,0)" xlink:href="#bM"/></g><g id="bc"><use transform="matrix(0.05,0,0,0.05,0,0)" xlink:href="#bZ"/><use transform="matrix(0.05,0,0,0.05,10,0)" xlink:href="#bX"/><use transform="matrix(0.05,0,0,0.05,20,0)" xlink:href="#bK"/><use transform="matrix(0.05,0,0,0.05,25,0)" xlink:href="#bX"/></g><g id="bd"><use transform="matrix(0.05,0,0,0.05,0,0)" xlink:href="#bK"/><use transform="matrix(0.05,0,0,0.05,5,0)" xlink:href="#bI"/></g><g id="be"><use transform="matrix(0.05,0,0,0.05,0,0)" xlink:href="#bY"/><use transform="matrix(0.05,0,0,0.05,9,0)" xlink:href="#bX"/><use transform="matrix(0.05,0,0,0.05,19,0)" xlink:href="#bJ"/><use transform="matrix(0.05,0,0,0.05,24.95,0)" xlink:href="#bJ"/><use transform="matrix(0.05,0,0,0.05,30.899999999999995,0)" xlink:href="#cb"/></g><g id="bf"><use transform="matrix(0.05,0,0,0.05,0,0)" xlink:href="#bI"/><use transform="matrix(0.05,0,0,0.05,10,0)" xlink:href="#cm"/><use transform="matrix(0.05,0,0,0.05,20,0)" xlink:href="#bK"/></g><g id="bg"><use transform="matrix(0.05,0,0,0.05,0,0)" xlink:href="#bN"/><use transform="matrix(0.05,0,0,0.05,3.95,0)" xlink:href="#bS"/><use transform="matrix(0.05,0,0,0.05,13.949999999999998,0)" xlink:href="#bK"/><use transform="matrix(0.05,0,0,0.05,18.95,0)" xlink:href="#bP"/><use transform="matrix(0.05,0,0,0.05,28.950000000000003,0)" xlink:href="#cg"/><use transform="matrix(0.05,0,0,0.05,38.95,0)" xlink:href="#bJ"/><use transform="matrix(0.05,0,0,0.05,44.900000000000006,0)" xlink:href="#bN"/><use transform="matrix(0.05,0,0,0.05,48.85000000000001,0)" xlink:href="#bK"/><use transform="matrix(0.05,0,0,0.05,53.85,0)" xlink:href="#cb"/></g><g id="bh"><use transform="matrix(0.05,0,0,0.05,0,0)" xlink:href="#cn"/><use transform="matrix(0.05,0,0,0.05,9,0)" xlink:href="#bP"/><use transform="matrix(0.05,0,0,0.05,19,0)" xlink:href="#bJ"/><use transform="matrix(0.05,0,0,0.05,24.95,0)" xlink:href="#bN"/><use transform="matrix(0.05,0,0,0.05,28.899999999999995,0)" xlink:href="#bO"/><use transform="matrix(0.05,0,0,0.05,33.9,0)" xlink:href="#bN"/><use transform="matrix(0.05,0,0,0.05,37.85,0)" xlink:href="#bY"/><use transform="matrix(0.05,0,0,0.05,46.85,0)" xlink:href="#bX"/><use transform="matrix(0.05,0,0,0.05,56.85,0)" xlink:href="#bK"/><use transform="matrix(0.05,0,0,0.05,61.85,0)" xlink:href="#bN"/><use transform="matrix(0.05,0,0,0.05,65.8,0)" xlink:href="#bI"/><use transform="matrix(0.05,0,0,0.05,75.8,0)" xlink:href="#bS"/></g><g id="bi"><use transform="matrix(0.05,0,0,0.05,0,0)" xlink:href="#bO"/><use transform="matrix(0.05,0,0,0.05,5,0)" xlink:href="#cm"/><use transform="matrix(0.05,0,0,0.05,15,0)" xlink:href="#bS"/><use transform="matrix(0.05,0,0,0.05,25,0)" xlink:href="#bY"/><use transform="matrix(0.05,0,0,0.05,34,0)" xlink:href="#bK"/><use transform="matrix(0.05,0,0,0.05,39,0)" xlink:href="#bN"/><use transform="matrix(0.05,0,0,0.05,42.95,0)" xlink:href="#bI"/><use transform="matrix(0.05,0,0,0.05,52.95,0)" xlink:href="#bS"/><use transform="matrix(0.05,0,0,0.05,62.95,0)" xlink:href="#bX"/><use transform="matrix(0.05,0,0,0.05,72.95,0)" xlink:href="#bR"/></g><g id="bj"><use transform="matrix(0.05,0,0,0.05,0,0)" xlink:href="#bK"/><use transform="matrix(0.05,0,0,0.05,5,0)" xlink:href="#bP"/><use transform="matrix(0.05,0,0,0.05,15,0)" xlink:href="#bL"/><use transform="matrix(0.05,0,0,0.05,24,0)" xlink:href="#bK"/><use transform="matrix(0.05,0,0,0.05,29,0)" xlink:href="#bN"/><use transform="matrix(0.05,0,0,0.05,32.95,0)" xlink:href="#bS"/><use transform="matrix(0.05,0,0,0.05,42.95,0)" xlink:href="#cg"/><use transform="matrix(0.05,0,0,0.05,52.95,0)" xlink:href="#bV"/></g></defs></g></svg>